<?xml version="1.0" encoding="UTF-8"?>
<svg xmlns="http://www.w3.org/2000/svg" xmlns:xlink="http://www.w3.org/1999/xlink"
     width="1200" height="414" viewBox="0 0 1200 414">
<defs>
</defs>
<rect x="0" y="0" width="1200" height="1000" fill="#FFFFFF" />
<text x="475.0" y="30" font-size="26" text-anchor="start" dominant-baseline="middle" font-family="Arial" stroke="#000000">My Demo Roadmap!!!</text>
<rect x="278.0" y="99" width="146.5" height="20" fill="#000000" />
<text x="322.75" y="103.5" font-size="12" stroke="#FFFFFF" text-anchor="start" dominant-baseline="hanging" font-family="Arial">Year 2022</text>
<rect x="426.0" y="99" width="738.5" height="20" fill="#000000" />
<text x="766.75" y="103.5" font-size="12" stroke="#FFFFFF" text-anchor="start" dominant-baseline="hanging" font-family="Arial">Year 2023</text>
<rect x="278.0" y="122" width="72.5" height="20" fill="#000000" />
<text x="303.25" y="126.5" font-size="12" stroke="#FFFFFF" text-anchor="start" dominant-baseline="hanging" font-family="Arial">Nov</text>
<rect x="352.0" y="122" width="72.5" height="20" fill="#000000" />
<text x="377.25" y="126.5" font-size="12" stroke="#FFFFFF" text-anchor="start" dominant-baseline="hanging" font-family="Arial">Dec</text>
<rect x="426.0" y="122" width="72.5" height="20" fill="#000000" />
<text x="452.25" y="126.5" font-size="12" stroke="#FFFFFF" text-anchor="start" dominant-baseline="hanging" font-family="Arial">Jan</text>
<rect x="500.0" y="122" width="72.5" height="20" fill="#000000" />
<text x="525.75" y="126.5" font-size="12" stroke="#FFFFFF" text-anchor="start" dominant-baseline="hanging" font-family="Arial">Feb</text>
<rect x="574.0" y="122" width="72.5" height="20" fill="#000000" />
<text x="599.25" y="126.5" font-size="12" stroke="#FFFFFF" text-anchor="start" dominant-baseline="hanging" font-family="Arial">Mar</text>
<rect x="648.0" y="122" width="72.5" height="20" fill="#000000" />
<text x="674.25" y="125.5" font-size="12" stroke="#FFFFFF" text-anchor="start" dominant-baseline="hanging" font-family="Arial">Apr</text>
<rect x="722.0" y="122" width="72.5" height="20" fill="#000000" />
<text x="746.75" y="125.5" font-size="12" stroke="#FFFFFF" text-anchor="start" dominant-baseline="hanging" font-family="Arial">May</text>
<rect x="796.0" y="122" width="72.5" height="20" fill="#000000" />
<text x="822.25" y="126.5" font-size="12" stroke="#FFFFFF" text-anchor="start" dominant-baseline="hanging" font-family="Arial">Jun</text>
<rect x="870.0" y="122" width="72.5" height="20" fill="#000000" />
<text x="898.25" y="126.5" font-size="12" stroke="#FFFFFF" text-anchor="start" dominant-baseline="hanging" font-family="Arial">Jul</text>
<rect x="944.0" y="122" width="72.5" height="20" fill="#000000" />
<text x="969.25" y="125.5" font-size="12" stroke="#FFFFFF" text-anchor="start" dominant-baseline="hanging" font-family="Arial">Aug</text>
<rect x="1018.0" y="122" width="72.5" height="20" fill="#000000" />
<text x="1043.25" y="125.5" font-size="12" stroke="#FFFFFF" text-anchor="start" dominant-baseline="hanging" font-family="Arial">Sep</text>
<rect x="1092.0" y="122" width="72.5" height="20" fill="#000000" />
<text x="1118.75" y="126.5" font-size="12" stroke="#FFFFFF" text-anchor="start" dominant-baseline="hanging" font-family="Arial">Oct</text>
<path d="M351.0,142 L351.0,309" width="1" fill="(230, 230, 230, 12750)" />
<path d="M425.0,142 L425.0,309" width="1" fill="(230, 230, 230, 12750)" />
<path d="M499.0,142 L499.0,309" width="1" fill="(230, 230, 230, 12750)" />
<path d="M573.0,142 L573.0,309" width="1" fill="(230, 230, 230, 12750)" />
<path d="M647.0,142 L647.0,309" width="1" fill="(230, 230, 230, 12750)" />
<path d="M721.0,142 L721.0,309" width="1" fill="(230, 230, 230, 12750)" />
<path d="M795.0,142 L795.0,309" width="1" fill="(230, 230, 230, 12750)" />
<path d="M869.0,142 L869.0,309" width="1" fill="(230, 230, 230, 12750)" />
<path d="M943.0,142 L943.0,309" width="1" fill="(230, 230, 230, 12750)" />
<path d="M1017.0,142 L1017.0,309" width="1" fill="(230, 230, 230, 12750)" />
<path d="M1091.0,142 L1091.0,309" width="1" fill="(230, 230, 230, 12750)" />
<rect x="30" y="177" width="228.0" height="82" fill="#000000" />
<text x="71.5" y="212.5" font-size="12" stroke="#FFFFFF" text-anchor="start" dominant-baseline="hanging" font-family="Arial">Core Product Work Stream</text>
<rect x="278" y="192" width="864" height="20" fill="#D9D9D9" />
<text x="660.0" y="195.5" font-size="12" stroke="#000000" text-anchor="start" dominant-baseline="hanging" font-family="Arial">Base Functionality</text>
<path d="M538.25,189 L551.25,202.0 L538.25,215 L525.25,202.0" fill="#000000" />
<text x="528.5833333333334" y="174" font-size="10" text-anchor="start" dominant-baseline="middle" font-family="Arial" stroke="#000000">v.1.0</text>
<path d="M946.0,189 L959.0,202.0 L946.0,215 L933.0,202.0" fill="#000000" />
<text x="936.3333333333334" y="174" font-size="10" text-anchor="start" dominant-baseline="middle" font-family="Arial" stroke="#000000">v.1.1</text>
<rect x="574" y="217" width="158" height="20" fill="#D9D9D9" />
<text x="616.0" y="221.5" font-size="12" stroke="#000000" text-anchor="start" dominant-baseline="hanging" font-family="Arial">Showcase #1</text>
<rect x="796" y="217" width="158" height="20" fill="#D9D9D9" />
<text x="838.0" y="221.5" font-size="12" stroke="#000000" text-anchor="start" dominant-baseline="hanging" font-family="Arial">Showcase #2</text>
<rect x="30" y="274" width="228.0" height="25" fill="#000000" />
<text x="86.5" y="280.0" font-size="12" stroke="#FFFFFF" text-anchor="start" dominant-baseline="hanging" font-family="Arial">Mobility Work Stream</text>
<rect x="500" y="274" width="648" height="20" fill="#D9D9D9" />
<text x="754.5" y="277.5" font-size="12" stroke="#000000" text-anchor="start" dominant-baseline="hanging" font-family="Arial">Mobile App Development</text>
<text x="886.75" y="155" font-size="12" text-anchor="start" dominant-baseline="middle" font-family="Arial" stroke="#000000">▼</text>
<path d="M891.75,166.0 L891.75,176.0" stroke="#000000" />
<path d="M891.75,181.05263157894737 L891.75,191.05263157894737" stroke="#000000" />
<path d="M891.75,196.10526315789474 L891.75,206.10526315789474" stroke="#000000" />
<path d="M891.75,211.1578947368421 L891.75,221.1578947368421" stroke="#000000" />
<path d="M891.75,226.21052631578948 L891.75,236.21052631578948" stroke="#000000" />
<path d="M891.75,241.26315789473682 L891.75,251.26315789473682" stroke="#000000" />
<path d="M891.75,256.3157894736842 L891.75,266.3157894736842" stroke="#000000" />
<path d="M891.75,271.36842105263156 L891.75,281.36842105263156" stroke="#000000" />
<path d="M891.75,286.42105263157896 L891.75,296.42105263157896" stroke="#000000" />
<path d="M891.75,301.4736842105263 L891.75,311.4736842105263" stroke="#000000" />
<text x="522.0" y="369" font-size="13" text-anchor="start" dominant-baseline="middle" font-family="Arial" stroke="#000000">Generated by Roadmapper</text>
</svg>