<?xml version="1.0" encoding="UTF-8"?>
<svg xmlns="http://www.w3.org/2000/svg" xmlns:xlink="http://www.w3.org/1999/xlink"
     width="1400" height="636" viewBox="0 0 1400 636">
<defs>
</defs>
<rect x="0" y="0" width="1400" height="1000" fill="#FFFFFF" />
<text x="530.0" y="30" font-size="26" text-anchor="start" dominant-baseline="middle" font-family="Arial" stroke="#000000">STRATEGY ROADMAP 2023</text>
<text x="595.5" y="59" font-size="18" text-anchor="start" dominant-baseline="middle" font-family="Arial" stroke="#000000">Matariki Technologies Inc.</text>
<rect x="318.0" y="120" width="1054.5" height="20" fill="#404040" />
<text x="816.75" y="124.5" font-size="12" stroke="white" text-anchor="start" dominant-baseline="hanging" font-family="Arial">Year 2023</text>
<rect x="318.0" y="143" width="86.5" height="20" fill="#404040" />
<text x="351.25" y="147.5" font-size="12" stroke="white" text-anchor="start" dominant-baseline="hanging" font-family="Arial">Jan</text>
<rect x="406.0" y="143" width="86.5" height="20" fill="#404040" />
<text x="438.75" y="147.5" font-size="12" stroke="white" text-anchor="start" dominant-baseline="hanging" font-family="Arial">Feb</text>
<rect x="494.0" y="143" width="86.5" height="20" fill="#404040" />
<text x="526.25" y="147.5" font-size="12" stroke="white" text-anchor="start" dominant-baseline="hanging" font-family="Arial">Mar</text>
<rect x="582.0" y="143" width="86.5" height="20" fill="#404040" />
<text x="615.25" y="146.5" font-size="12" stroke="white" text-anchor="start" dominant-baseline="hanging" font-family="Arial">Apr</text>
<rect x="670.0" y="143" width="86.5" height="20" fill="#404040" />
<text x="701.75" y="146.5" font-size="12" stroke="white" text-anchor="start" dominant-baseline="hanging" font-family="Arial">May</text>
<rect x="758.0" y="143" width="86.5" height="20" fill="#404040" />
<text x="791.25" y="147.5" font-size="12" stroke="white" text-anchor="start" dominant-baseline="hanging" font-family="Arial">Jun</text>
<rect x="846.0" y="143" width="86.5" height="20" fill="#404040" />
<text x="881.25" y="147.5" font-size="12" stroke="white" text-anchor="start" dominant-baseline="hanging" font-family="Arial">Jul</text>
<rect x="934.0" y="143" width="86.5" height="20" fill="#404040" />
<text x="966.25" y="146.5" font-size="12" stroke="white" text-anchor="start" dominant-baseline="hanging" font-family="Arial">Aug</text>
<rect x="1022.0" y="143" width="86.5" height="20" fill="#404040" />
<text x="1054.25" y="146.5" font-size="12" stroke="white" text-anchor="start" dominant-baseline="hanging" font-family="Arial">Sep</text>
<rect x="1110.0" y="143" width="86.5" height="20" fill="#404040" />
<text x="1143.75" y="147.5" font-size="12" stroke="white" text-anchor="start" dominant-baseline="hanging" font-family="Arial">Oct</text>
<rect x="1198.0" y="143" width="86.5" height="20" fill="#404040" />
<text x="1230.25" y="147.5" font-size="12" stroke="white" text-anchor="start" dominant-baseline="hanging" font-family="Arial">Nov</text>
<rect x="1286.0" y="143" width="86.5" height="20" fill="#404040" />
<text x="1318.25" y="147.5" font-size="12" stroke="white" text-anchor="start" dominant-baseline="hanging" font-family="Arial">Dec</text>
<path d="M405.0,163 L405.0,531" stroke="#e6e6e6" stroke-opacity="50" stroke-width="1" />
<path d="M493.0,163 L493.0,531" stroke="#e6e6e6" stroke-opacity="50" stroke-width="1" />
<path d="M581.0,163 L581.0,531" stroke="#e6e6e6" stroke-opacity="50" stroke-width="1" />
<path d="M669.0,163 L669.0,531" stroke="#e6e6e6" stroke-opacity="50" stroke-width="1" />
<path d="M757.0,163 L757.0,531" stroke="#e6e6e6" stroke-opacity="50" stroke-width="1" />
<path d="M845.0,163 L845.0,531" stroke="#e6e6e6" stroke-opacity="50" stroke-width="1" />
<path d="M933.0,163 L933.0,531" stroke="#e6e6e6" stroke-opacity="50" stroke-width="1" />
<path d="M1021.0,163 L1021.0,531" stroke="#e6e6e6" stroke-opacity="50" stroke-width="1" />
<path d="M1109.0,163 L1109.0,531" stroke="#e6e6e6" stroke-opacity="50" stroke-width="1" />
<path d="M1197.0,163 L1197.0,531" stroke="#e6e6e6" stroke-opacity="50" stroke-width="1" />
<path d="M1285.0,163 L1285.0,531" stroke="#e6e6e6" stroke-opacity="50" stroke-width="1" />
<rect x="30" y="178" width="268.0" height="52" fill="#FFC000" />
<text x="139.5" y="197.5" font-size="12" stroke="black" text-anchor="start" dominant-baseline="hanging" font-family="Arial">Planning</text>
<rect x="318" y="178" width="262" height="20" fill="#FFC000" />
<text x="432.0" y="182.5" font-size="12" stroke="black" text-anchor="start" dominant-baseline="hanging" font-family="Arial">Vision</text>
<rect x="449" y="203" width="131" height="20" fill="#FFC000" />
<text x="498.5" y="207.5" font-size="12" stroke="black" text-anchor="start" dominant-baseline="hanging" font-family="Arial">Goals</text>
<rect x="582" y="203" width="174" height="20" fill="#FFC000" />
<text x="628.0" y="206.5" font-size="12" stroke="black" text-anchor="start" dominant-baseline="hanging" font-family="Arial">Strategic Intent</text>
<rect x="758" y="203" width="131" height="20" fill="#FFC000" />
<text x="786.5" y="206.5" font-size="12" stroke="black" text-anchor="start" dominant-baseline="hanging" font-family="Arial">Sales Budget</text>
<rect x="889" y="203" width="219" height="20" fill="#FFC000" />
<text x="958.5" y="207.5" font-size="12" stroke="black" text-anchor="start" dominant-baseline="hanging" font-family="Arial">Release Plans</text>
<rect x="30" y="245" width="268.0" height="136" fill="#ED7D31" />
<text x="141.5" y="306.5" font-size="12" stroke="black" text-anchor="start" dominant-baseline="hanging" font-family="Arial">Strategy</text>
<rect x="406" y="260" width="174" height="20" fill="#ED7D31" />
<text x="450.0" y="263.5" font-size="12" stroke="black" text-anchor="start" dominant-baseline="hanging" font-family="Arial">Market Analysis</text>
<rect x="582" y="260" width="86" height="20" fill="#ED7D31" />
<text x="607.0" y="264.5" font-size="12" stroke="black" text-anchor="start" dominant-baseline="hanging" font-family="Arial">SWOT</text>
<path d="M582.5,257 L595.5,270.0 L582.5,283 L569.5,270.0" fill="#843C0C" />
<text x="551.5" y="242" font-size="10" text-anchor="start" dominant-baseline="middle" font-family="Arial" stroke="black">Competitor Review</text>
<rect x="582" y="300" width="174" height="20" fill="#ED7D31" />
<text x="625.5" y="304.5" font-size="12" stroke="black" text-anchor="start" dominant-baseline="hanging" font-family="Arial">Business Model</text>
<rect x="758" y="300" width="193" height="20" fill="#ED7D31" />
<text x="814.5" y="304.5" font-size="12" stroke="black" text-anchor="start" dominant-baseline="hanging" font-family="Arial">Price Reseach</text>
<path d="M925.85,297 L938.85,310.0 L925.85,323 L912.85,310.0" fill="#843C0C" />
<text x="899.5166666666667" y="282" font-size="10" text-anchor="start" dominant-baseline="middle" font-family="Arial" stroke="black">Price List (Final)</text>
<path d="M760.0,297 L773.0,310.0 L760.0,323 L747.0,310.0" fill="#843C0C" />
<text x="733.6666666666666" y="282" font-size="10" text-anchor="start" dominant-baseline="middle" font-family="Arial" stroke="black">Price List (Draft)</text>
<rect x="818" y="325" width="228" height="20" fill="#ED7D31" />
<text x="903.5" y="328.5" font-size="12" stroke="black" text-anchor="start" dominant-baseline="hanging" font-family="Arial">Objectives</text>
<rect x="977" y="350" width="158" height="20" fill="#ED7D31" />
<text x="995.5" y="353.5" font-size="12" stroke="black" text-anchor="start" dominant-baseline="hanging" font-family="Arial">Sales Trends Analysis</text>
<rect x="30" y="396" width="268.0" height="70" fill="#70AD47" />
<text x="105.0" y="424.5" font-size="12" stroke="black" text-anchor="start" dominant-baseline="hanging" font-family="Arial">Service Development</text>
<rect x="449" y="411" width="131" height="20" fill="#70AD47" />
<text x="465.0" y="414.5" font-size="12" stroke="black" text-anchor="start" dominant-baseline="hanging" font-family="Arial">Product Roadmap</text>
<rect x="582" y="411" width="438" height="20" fill="#70AD47" />
<text x="764.0" y="414.5" font-size="12" stroke="black" text-anchor="start" dominant-baseline="hanging" font-family="Arial">Development</text>
<path d="M723.9,408 L736.9,421.0 L723.9,434 L710.9,421.0" fill="#385723" />
<text x="700.5666666666666" y="393" font-size="10" text-anchor="start" dominant-baseline="middle" font-family="Arial" stroke="black">Alpha May 20</text>
<path d="M856.65,408 L869.65,421.0 L856.65,434 L843.65,421.0" fill="#385723" />
<text x="825.3166666666666" y="393" font-size="10" text-anchor="start" dominant-baseline="middle" font-family="Arial" stroke="black">Private Beta Jul 02</text>
<path d="M979.25,408 L992.25,421.0 L979.25,434 L966.25,421.0" fill="#385723" />
<text x="947.25" y="393" font-size="10" text-anchor="start" dominant-baseline="middle" font-family="Arial" stroke="black">Public Beta Aug 15</text>
<rect x="1022" y="411" width="131" height="20" fill="#70AD47" />
<text x="1034.5" y="415.5" font-size="12" stroke="black" text-anchor="start" dominant-baseline="hanging" font-family="Arial">Release Candidate</text>
<rect x="1153" y="411" width="219" height="20" fill="#70AD47" />
<text x="1212.5" y="415.5" font-size="12" stroke="black" text-anchor="start" dominant-baseline="hanging" font-family="Arial">Release To Public</text>
<path d="M1339.9,408 L1352.9,421.0 L1339.9,434 L1326.9,421.0" fill="#385723" />
<text x="1313.9" y="393" font-size="10" text-anchor="start" dominant-baseline="middle" font-family="Arial" stroke="black">Go Live Dec 20</text>
<rect x="30" y="481" width="268.0" height="40" fill="#4472C4" />
<text x="106.0" y="494.5" font-size="12" stroke="black" text-anchor="start" dominant-baseline="hanging" font-family="Arial">Business Intelligence</text>
<rect x="625" y="496" width="747" height="20" fill="#4472C4" />
<text x="954.5" y="499.5" font-size="12" stroke="black" text-anchor="start" dominant-baseline="hanging" font-family="Arial">BI Development</text>
<path d="M715.25,493 L728.25,506.0 L715.25,519 L702.25,506.0" fill="#162641" />
<text x="683.9166666666666" y="478" font-size="10" text-anchor="start" dominant-baseline="middle" font-family="Arial" stroke="black">Service Dashboard</text>
<path d="M936.0,493 L949.0,506.0 L936.0,519 L923.0,506.0" fill="#162641" />
<text x="904.0" y="478" font-size="10" text-anchor="start" dominant-baseline="middle" font-family="Arial" stroke="black">Real-Time Analytics</text>
<path d="M1331.25,493 L1344.25,506.0 L1331.25,519 L1318.25,506.0" fill="#162641" />
<text x="1302.5833333333333" y="478" font-size="10" text-anchor="start" dominant-baseline="middle" font-family="Arial" stroke="black">Sales Dashboard</text>
<text x="622.0" y="591" font-size="13" text-anchor="start" dominant-baseline="middle" font-family="Arial" stroke="#000000">Generated by Roadmapper</text>
</svg>