<?xml version="1.0" encoding="UTF-8"?>
<svg xmlns="http://www.w3.org/2000/svg" xmlns:xlink="http://www.w3.org/1999/xlink"
     width="1400" height="711" viewBox="0 0 1400 711">
<defs>
</defs>
<rect x="0" y="0" width="1400" height="1000" fill="#FFFFFF" />
<text x="530.0" y="30" font-size="26" text-anchor="start" dominant-baseline="middle" font-family="Arial" stroke="#000000">STRATEGY ROADMAP 2023</text>
<text x="595.5" y="59" font-size="18" text-anchor="start" dominant-baseline="middle" font-family="Arial" stroke="#000000">Matariki Technologies Inc.</text>
<rect x="318.0" y="120" width="1054.5" height="20" fill="#404040" />
<text x="816.75" y="124.5" font-size="12" stroke="white" text-anchor="start" dominant-baseline="hanging" font-family="Arial">Year 2023</text>
<rect x="318.0" y="143" width="86.5" height="20" fill="#404040" />
<text x="351.25" y="147.5" font-size="12" stroke="white" text-anchor="start" dominant-baseline="hanging" font-family="Arial">Jan</text>
<rect x="406.0" y="143" width="86.5" height="20" fill="#404040" />
<text x="438.75" y="147.5" font-size="12" stroke="white" text-anchor="start" dominant-baseline="hanging" font-family="Arial">Feb</text>
<rect x="494.0" y="143" width="86.5" height="20" fill="#404040" />
<text x="526.25" y="147.5" font-size="12" stroke="white" text-anchor="start" dominant-baseline="hanging" font-family="Arial">Mar</text>
<rect x="582.0" y="143" width="86.5" height="20" fill="#404040" />
<text x="615.25" y="146.5" font-size="12" stroke="white" text-anchor="start" dominant-baseline="hanging" font-family="Arial">Apr</text>
<rect x="670.0" y="143" width="86.5" height="20" fill="#404040" />
<text x="701.75" y="146.5" font-size="12" stroke="white" text-anchor="start" dominant-baseline="hanging" font-family="Arial">May</text>
<rect x="758.0" y="143" width="86.5" height="20" fill="#404040" />
<text x="791.25" y="147.5" font-size="12" stroke="white" text-anchor="start" dominant-baseline="hanging" font-family="Arial">Jun</text>
<rect x="846.0" y="143" width="86.5" height="20" fill="#404040" />
<text x="881.25" y="147.5" font-size="12" stroke="white" text-anchor="start" dominant-baseline="hanging" font-family="Arial">Jul</text>
<rect x="934.0" y="143" width="86.5" height="20" fill="#404040" />
<text x="966.25" y="146.5" font-size="12" stroke="white" text-anchor="start" dominant-baseline="hanging" font-family="Arial">Aug</text>
<rect x="1022.0" y="143" width="86.5" height="20" fill="#404040" />
<text x="1054.25" y="146.5" font-size="12" stroke="white" text-anchor="start" dominant-baseline="hanging" font-family="Arial">Sep</text>
<rect x="1110.0" y="143" width="86.5" height="20" fill="#404040" />
<text x="1143.75" y="147.5" font-size="12" stroke="white" text-anchor="start" dominant-baseline="hanging" font-family="Arial">Oct</text>
<rect x="1198.0" y="143" width="86.5" height="20" fill="#404040" />
<text x="1230.25" y="147.5" font-size="12" stroke="white" text-anchor="start" dominant-baseline="hanging" font-family="Arial">Nov</text>
<rect x="1286.0" y="143" width="86.5" height="20" fill="#404040" />
<text x="1318.25" y="147.5" font-size="12" stroke="white" text-anchor="start" dominant-baseline="hanging" font-family="Arial">Dec</text>
<path d="M405.0,163 L405.0,606" width="1" fill="(230, 230, 230, 12750)" />
<path d="M493.0,163 L493.0,606" width="1" fill="(230, 230, 230, 12750)" />
<path d="M581.0,163 L581.0,606" width="1" fill="(230, 230, 230, 12750)" />
<path d="M669.0,163 L669.0,606" width="1" fill="(230, 230, 230, 12750)" />
<path d="M757.0,163 L757.0,606" width="1" fill="(230, 230, 230, 12750)" />
<path d="M845.0,163 L845.0,606" width="1" fill="(230, 230, 230, 12750)" />
<path d="M933.0,163 L933.0,606" width="1" fill="(230, 230, 230, 12750)" />
<path d="M1021.0,163 L1021.0,606" width="1" fill="(230, 230, 230, 12750)" />
<path d="M1109.0,163 L1109.0,606" width="1" fill="(230, 230, 230, 12750)" />
<path d="M1197.0,163 L1197.0,606" width="1" fill="(230, 230, 230, 12750)" />
<path d="M1285.0,163 L1285.0,606" width="1" fill="(230, 230, 230, 12750)" />
<rect x="30" y="178" width="268.0" height="82" fill="#FFC000" />
<text x="139.5" y="212.5" font-size="12" stroke="black" text-anchor="start" dominant-baseline="hanging" font-family="Arial">Planning</text>
<rect x="318" y="178" width="258" height="20" fill="#FFC000" />
<text x="430.0" y="182.5" font-size="12" stroke="black" text-anchor="start" dominant-baseline="hanging" font-family="Arial">Vision</text>
<rect x="449" y="203" width="129" height="20" fill="#FFC000" />
<text x="497.5" y="207.5" font-size="12" stroke="black" text-anchor="start" dominant-baseline="hanging" font-family="Arial">Goals</text>
<rect x="582" y="203" width="172" height="20" fill="#FFC000" />
<text x="627.0" y="206.5" font-size="12" stroke="black" text-anchor="start" dominant-baseline="hanging" font-family="Arial">Strategic Intent</text>
<rect x="758" y="203" width="129" height="20" fill="#FFC000" />
<text x="785.5" y="206.5" font-size="12" stroke="black" text-anchor="start" dominant-baseline="hanging" font-family="Arial">Sales Budget</text>
<rect x="889" y="203" width="215" height="20" fill="#FFC000" />
<text x="956.5" y="207.5" font-size="12" stroke="black" text-anchor="start" dominant-baseline="hanging" font-family="Arial">Release Plans</text>
<rect x="30" y="275" width="268.0" height="166" fill="#ED7D31" />
<text x="141.5" y="351.5" font-size="12" stroke="black" text-anchor="start" dominant-baseline="hanging" font-family="Arial">Strategy</text>
<rect x="406" y="290" width="172" height="20" fill="#ED7D31" />
<text x="449.0" y="293.5" font-size="12" stroke="black" text-anchor="start" dominant-baseline="hanging" font-family="Arial">Market Analysis</text>
<rect x="582" y="290" width="86" height="20" fill="#ED7D31" />
<text x="607.0" y="294.5" font-size="12" stroke="black" text-anchor="start" dominant-baseline="hanging" font-family="Arial">SWOT</text>
<path d="M582.5,287 L595.5,300.0 L582.5,313 L569.5,300.0" fill="#843C0C" />
<text x="551.5" y="272" font-size="10" text-anchor="start" dominant-baseline="middle" font-family="Arial" stroke="black">Competitor Review</text>
<rect x="582" y="330" width="172" height="20" fill="#ED7D31" />
<text x="624.5" y="334.5" font-size="12" stroke="black" text-anchor="start" dominant-baseline="hanging" font-family="Arial">Business Model</text>
<rect x="758" y="330" width="189" height="20" fill="#ED7D31" />
<text x="812.5" y="334.5" font-size="12" stroke="black" text-anchor="start" dominant-baseline="hanging" font-family="Arial">Price Reseach</text>
<path d="M925.85,327 L938.85,340.0 L925.85,353 L912.85,340.0" fill="#843C0C" />
<text x="899.5166666666667" y="312" font-size="10" text-anchor="start" dominant-baseline="middle" font-family="Arial" stroke="black">Price List (Final)</text>
<path d="M760.0,327 L773.0,340.0 L760.0,353 L747.0,340.0" fill="#843C0C" />
<text x="733.6666666666666" y="312" font-size="10" text-anchor="start" dominant-baseline="middle" font-family="Arial" stroke="black">Price List (Draft)</text>
<rect x="818" y="355" width="222" height="20" fill="#ED7D31" />
<text x="900.5" y="358.5" font-size="12" stroke="black" text-anchor="start" dominant-baseline="hanging" font-family="Arial">Objectives</text>
<rect x="977" y="380" width="154" height="20" fill="#ED7D31" />
<text x="993.5" y="383.5" font-size="12" stroke="black" text-anchor="start" dominant-baseline="hanging" font-family="Arial">Sales Trends Analysis</text>
<rect x="30" y="456" width="268.0" height="85" fill="#70AD47" />
<text x="105.0" y="492.0" font-size="12" stroke="black" text-anchor="start" dominant-baseline="hanging" font-family="Arial">Service Development</text>
<rect x="449" y="471" width="129" height="20" fill="#70AD47" />
<text x="464.0" y="474.5" font-size="12" stroke="black" text-anchor="start" dominant-baseline="hanging" font-family="Arial">Product Roadmap</text>
<rect x="582" y="471" width="430" height="20" fill="#70AD47" />
<text x="760.0" y="474.5" font-size="12" stroke="black" text-anchor="start" dominant-baseline="hanging" font-family="Arial">Development</text>
<path d="M723.9,468 L736.9,481.0 L723.9,494 L710.9,481.0" fill="#385723" />
<text x="700.5666666666666" y="453" font-size="10" text-anchor="start" dominant-baseline="middle" font-family="Arial" stroke="black">Alpha May 20</text>
<path d="M856.65,468 L869.65,481.0 L856.65,494 L843.65,481.0" fill="#385723" />
<text x="825.3166666666666" y="453" font-size="10" text-anchor="start" dominant-baseline="middle" font-family="Arial" stroke="black">Private Beta Jul 02</text>
<path d="M979.25,468 L992.25,481.0 L979.25,494 L966.25,481.0" fill="#385723" />
<text x="947.25" y="453" font-size="10" text-anchor="start" dominant-baseline="middle" font-family="Arial" stroke="black">Public Beta Aug 15</text>
<rect x="1022" y="471" width="129" height="20" fill="#70AD47" />
<text x="1033.5" y="475.5" font-size="12" stroke="black" text-anchor="start" dominant-baseline="hanging" font-family="Arial">Release Candidate</text>
<rect x="1153" y="471" width="215" height="20" fill="#70AD47" />
<text x="1210.5" y="475.5" font-size="12" stroke="black" text-anchor="start" dominant-baseline="hanging" font-family="Arial">Release To Public</text>
<path d="M1339.9,468 L1352.9,481.0 L1339.9,494 L1326.9,481.0" fill="#385723" />
<text x="1313.9" y="453" font-size="10" text-anchor="start" dominant-baseline="middle" font-family="Arial" stroke="black">Go Live Dec 20</text>
<rect x="30" y="556" width="268.0" height="40" fill="#4472C4" />
<text x="106.0" y="569.5" font-size="12" stroke="black" text-anchor="start" dominant-baseline="hanging" font-family="Arial">Business Intelligence</text>
<rect x="625" y="571" width="731" height="20" fill="#4472C4" />
<text x="946.5" y="574.5" font-size="12" stroke="black" text-anchor="start" dominant-baseline="hanging" font-family="Arial">BI Development</text>
<path d="M715.25,568 L728.25,581.0 L715.25,594 L702.25,581.0" fill="#162641" />
<text x="683.9166666666666" y="553" font-size="10" text-anchor="start" dominant-baseline="middle" font-family="Arial" stroke="black">Service Dashboard</text>
<path d="M936.0,568 L949.0,581.0 L936.0,594 L923.0,581.0" fill="#162641" />
<text x="904.0" y="553" font-size="10" text-anchor="start" dominant-baseline="middle" font-family="Arial" stroke="black">Real-Time Analytics</text>
<path d="M1331.25,568 L1344.25,581.0 L1331.25,594 L1318.25,581.0" fill="#162641" />
<text x="1302.5833333333333" y="553" font-size="10" text-anchor="start" dominant-baseline="middle" font-family="Arial" stroke="black">Sales Dashboard</text>
<text x="622.0" y="666" font-size="13" text-anchor="start" dominant-baseline="middle" font-family="Arial" stroke="#000000">Generated by Roadmapper</text>
</svg>