<?xml version="1.0" encoding="UTF-8"?>
<svg xmlns="http://www.w3.org/2000/svg" xmlns:xlink="http://www.w3.org/1999/xlink"
     width="2400" height="420" viewBox="0 0 2400 420">
<defs>
</defs>
<rect x="0" y="0" width="2400" height="1000" fill="#FFFFFF" />
<text x="1013.0" y="30" font-size="26" text-anchor="start" dominant-baseline="middle" font-family="Arial" stroke="#000000">SAMPLE ROADMAP 2022/2023</text>
<text x="1113.0" y="59" font-size="18" text-anchor="start" dominant-baseline="middle" font-family="Arial" stroke="#000000">GodZone Corporation</text>
<rect x="518.0" y="120" width="33.5" height="20" fill="#000000" />
<text x="522.25" y="117.0" font-size="12" stroke="#FFFFFF" text-anchor="start" dominant-baseline="hanging" font-family="Arial">Year</text>
<text x="521.25" y="132.0" font-size="12" stroke="#FFFFFF" text-anchor="start" dominant-baseline="hanging" font-family="Arial">2022</text>
<rect x="553.0" y="120" width="1783.5" height="20" fill="#000000" />
<text x="1417.25" y="124.5" font-size="12" stroke="#FFFFFF" text-anchor="start" dominant-baseline="hanging" font-family="Arial">Year 2023</text>
<rect x="518.0" y="143" width="33.5" height="20" fill="#000000" />
<text x="522.25" y="147.5" font-size="12" stroke="#FFFFFF" text-anchor="start" dominant-baseline="hanging" font-family="Arial">W52</text>
<rect x="553.0" y="143" width="33.5" height="20" fill="#000000" />
<text x="560.75" y="147.5" font-size="12" stroke="#FFFFFF" text-anchor="start" dominant-baseline="hanging" font-family="Arial">W1</text>
<rect x="588.0" y="143" width="33.5" height="20" fill="#000000" />
<text x="595.75" y="147.5" font-size="12" stroke="#FFFFFF" text-anchor="start" dominant-baseline="hanging" font-family="Arial">W2</text>
<rect x="623.0" y="143" width="33.5" height="20" fill="#000000" />
<text x="630.75" y="147.5" font-size="12" stroke="#FFFFFF" text-anchor="start" dominant-baseline="hanging" font-family="Arial">W3</text>
<rect x="658.0" y="143" width="33.5" height="20" fill="#000000" />
<text x="665.75" y="147.5" font-size="12" stroke="#FFFFFF" text-anchor="start" dominant-baseline="hanging" font-family="Arial">W4</text>
<rect x="693.0" y="143" width="33.5" height="20" fill="#000000" />
<text x="700.75" y="147.5" font-size="12" stroke="#FFFFFF" text-anchor="start" dominant-baseline="hanging" font-family="Arial">W5</text>
<rect x="728.0" y="143" width="33.5" height="20" fill="#000000" />
<text x="735.75" y="147.5" font-size="12" stroke="#FFFFFF" text-anchor="start" dominant-baseline="hanging" font-family="Arial">W6</text>
<rect x="763.0" y="143" width="33.5" height="20" fill="#000000" />
<text x="770.75" y="147.5" font-size="12" stroke="#FFFFFF" text-anchor="start" dominant-baseline="hanging" font-family="Arial">W7</text>
<rect x="798.0" y="143" width="33.5" height="20" fill="#000000" />
<text x="805.75" y="147.5" font-size="12" stroke="#FFFFFF" text-anchor="start" dominant-baseline="hanging" font-family="Arial">W8</text>
<rect x="833.0" y="143" width="33.5" height="20" fill="#000000" />
<text x="840.75" y="147.5" font-size="12" stroke="#FFFFFF" text-anchor="start" dominant-baseline="hanging" font-family="Arial">W9</text>
<rect x="868.0" y="143" width="33.5" height="20" fill="#000000" />
<text x="872.25" y="147.5" font-size="12" stroke="#FFFFFF" text-anchor="start" dominant-baseline="hanging" font-family="Arial">W10</text>
<rect x="903.0" y="143" width="33.5" height="20" fill="#000000" />
<text x="907.75" y="147.5" font-size="12" stroke="#FFFFFF" text-anchor="start" dominant-baseline="hanging" font-family="Arial">W11</text>
<rect x="938.0" y="143" width="33.5" height="20" fill="#000000" />
<text x="942.25" y="147.5" font-size="12" stroke="#FFFFFF" text-anchor="start" dominant-baseline="hanging" font-family="Arial">W12</text>
<rect x="973.0" y="143" width="33.5" height="20" fill="#000000" />
<text x="977.25" y="147.5" font-size="12" stroke="#FFFFFF" text-anchor="start" dominant-baseline="hanging" font-family="Arial">W13</text>
<rect x="1008.0" y="143" width="33.5" height="20" fill="#000000" />
<text x="1012.25" y="147.5" font-size="12" stroke="#FFFFFF" text-anchor="start" dominant-baseline="hanging" font-family="Arial">W14</text>
<rect x="1043.0" y="143" width="33.5" height="20" fill="#000000" />
<text x="1047.25" y="147.5" font-size="12" stroke="#FFFFFF" text-anchor="start" dominant-baseline="hanging" font-family="Arial">W15</text>
<rect x="1078.0" y="143" width="33.5" height="20" fill="#000000" />
<text x="1082.25" y="147.5" font-size="12" stroke="#FFFFFF" text-anchor="start" dominant-baseline="hanging" font-family="Arial">W16</text>
<rect x="1113.0" y="143" width="33.5" height="20" fill="#000000" />
<text x="1117.25" y="147.5" font-size="12" stroke="#FFFFFF" text-anchor="start" dominant-baseline="hanging" font-family="Arial">W17</text>
<rect x="1148.0" y="143" width="33.5" height="20" fill="#000000" />
<text x="1152.25" y="147.5" font-size="12" stroke="#FFFFFF" text-anchor="start" dominant-baseline="hanging" font-family="Arial">W18</text>
<rect x="1183.0" y="143" width="33.5" height="20" fill="#000000" />
<text x="1187.25" y="147.5" font-size="12" stroke="#FFFFFF" text-anchor="start" dominant-baseline="hanging" font-family="Arial">W19</text>
<rect x="1218.0" y="143" width="33.5" height="20" fill="#000000" />
<text x="1222.25" y="147.5" font-size="12" stroke="#FFFFFF" text-anchor="start" dominant-baseline="hanging" font-family="Arial">W20</text>
<rect x="1253.0" y="143" width="33.5" height="20" fill="#000000" />
<text x="1257.25" y="147.5" font-size="12" stroke="#FFFFFF" text-anchor="start" dominant-baseline="hanging" font-family="Arial">W21</text>
<rect x="1288.0" y="143" width="33.5" height="20" fill="#000000" />
<text x="1292.25" y="147.5" font-size="12" stroke="#FFFFFF" text-anchor="start" dominant-baseline="hanging" font-family="Arial">W22</text>
<rect x="1323.0" y="143" width="33.5" height="20" fill="#000000" />
<text x="1327.25" y="147.5" font-size="12" stroke="#FFFFFF" text-anchor="start" dominant-baseline="hanging" font-family="Arial">W23</text>
<rect x="1358.0" y="143" width="33.5" height="20" fill="#000000" />
<text x="1362.25" y="147.5" font-size="12" stroke="#FFFFFF" text-anchor="start" dominant-baseline="hanging" font-family="Arial">W24</text>
<rect x="1393.0" y="143" width="33.5" height="20" fill="#000000" />
<text x="1397.25" y="147.5" font-size="12" stroke="#FFFFFF" text-anchor="start" dominant-baseline="hanging" font-family="Arial">W25</text>
<rect x="1428.0" y="143" width="33.5" height="20" fill="#000000" />
<text x="1432.25" y="147.5" font-size="12" stroke="#FFFFFF" text-anchor="start" dominant-baseline="hanging" font-family="Arial">W26</text>
<rect x="1463.0" y="143" width="33.5" height="20" fill="#000000" />
<text x="1467.25" y="147.5" font-size="12" stroke="#FFFFFF" text-anchor="start" dominant-baseline="hanging" font-family="Arial">W27</text>
<rect x="1498.0" y="143" width="33.5" height="20" fill="#000000" />
<text x="1502.25" y="147.5" font-size="12" stroke="#FFFFFF" text-anchor="start" dominant-baseline="hanging" font-family="Arial">W28</text>
<rect x="1533.0" y="143" width="33.5" height="20" fill="#000000" />
<text x="1537.25" y="147.5" font-size="12" stroke="#FFFFFF" text-anchor="start" dominant-baseline="hanging" font-family="Arial">W29</text>
<rect x="1568.0" y="143" width="33.5" height="20" fill="#000000" />
<text x="1572.25" y="147.5" font-size="12" stroke="#FFFFFF" text-anchor="start" dominant-baseline="hanging" font-family="Arial">W30</text>
<rect x="1603.0" y="143" width="33.5" height="20" fill="#000000" />
<text x="1607.25" y="147.5" font-size="12" stroke="#FFFFFF" text-anchor="start" dominant-baseline="hanging" font-family="Arial">W31</text>
<rect x="1638.0" y="143" width="33.5" height="20" fill="#000000" />
<text x="1642.25" y="147.5" font-size="12" stroke="#FFFFFF" text-anchor="start" dominant-baseline="hanging" font-family="Arial">W32</text>
<rect x="1673.0" y="143" width="33.5" height="20" fill="#000000" />
<text x="1677.25" y="147.5" font-size="12" stroke="#FFFFFF" text-anchor="start" dominant-baseline="hanging" font-family="Arial">W33</text>
<rect x="1708.0" y="143" width="33.5" height="20" fill="#000000" />
<text x="1712.25" y="147.5" font-size="12" stroke="#FFFFFF" text-anchor="start" dominant-baseline="hanging" font-family="Arial">W34</text>
<rect x="1743.0" y="143" width="33.5" height="20" fill="#000000" />
<text x="1747.25" y="147.5" font-size="12" stroke="#FFFFFF" text-anchor="start" dominant-baseline="hanging" font-family="Arial">W35</text>
<rect x="1778.0" y="143" width="33.5" height="20" fill="#000000" />
<text x="1782.25" y="147.5" font-size="12" stroke="#FFFFFF" text-anchor="start" dominant-baseline="hanging" font-family="Arial">W36</text>
<rect x="1813.0" y="143" width="33.5" height="20" fill="#000000" />
<text x="1817.25" y="147.5" font-size="12" stroke="#FFFFFF" text-anchor="start" dominant-baseline="hanging" font-family="Arial">W37</text>
<rect x="1848.0" y="143" width="33.5" height="20" fill="#000000" />
<text x="1852.25" y="147.5" font-size="12" stroke="#FFFFFF" text-anchor="start" dominant-baseline="hanging" font-family="Arial">W38</text>
<rect x="1883.0" y="143" width="33.5" height="20" fill="#000000" />
<text x="1887.25" y="147.5" font-size="12" stroke="#FFFFFF" text-anchor="start" dominant-baseline="hanging" font-family="Arial">W39</text>
<rect x="1918.0" y="143" width="33.5" height="20" fill="#000000" />
<text x="1922.25" y="147.5" font-size="12" stroke="#FFFFFF" text-anchor="start" dominant-baseline="hanging" font-family="Arial">W40</text>
<rect x="1953.0" y="143" width="33.5" height="20" fill="#000000" />
<text x="1957.25" y="147.5" font-size="12" stroke="#FFFFFF" text-anchor="start" dominant-baseline="hanging" font-family="Arial">W41</text>
<rect x="1988.0" y="143" width="33.5" height="20" fill="#000000" />
<text x="1992.25" y="147.5" font-size="12" stroke="#FFFFFF" text-anchor="start" dominant-baseline="hanging" font-family="Arial">W42</text>
<rect x="2023.0" y="143" width="33.5" height="20" fill="#000000" />
<text x="2027.25" y="147.5" font-size="12" stroke="#FFFFFF" text-anchor="start" dominant-baseline="hanging" font-family="Arial">W43</text>
<rect x="2058.0" y="143" width="33.5" height="20" fill="#000000" />
<text x="2062.25" y="147.5" font-size="12" stroke="#FFFFFF" text-anchor="start" dominant-baseline="hanging" font-family="Arial">W44</text>
<rect x="2093.0" y="143" width="33.5" height="20" fill="#000000" />
<text x="2097.25" y="147.5" font-size="12" stroke="#FFFFFF" text-anchor="start" dominant-baseline="hanging" font-family="Arial">W45</text>
<rect x="2128.0" y="143" width="33.5" height="20" fill="#000000" />
<text x="2132.25" y="147.5" font-size="12" stroke="#FFFFFF" text-anchor="start" dominant-baseline="hanging" font-family="Arial">W46</text>
<rect x="2163.0" y="143" width="33.5" height="20" fill="#000000" />
<text x="2167.25" y="147.5" font-size="12" stroke="#FFFFFF" text-anchor="start" dominant-baseline="hanging" font-family="Arial">W47</text>
<rect x="2198.0" y="143" width="33.5" height="20" fill="#000000" />
<text x="2202.25" y="147.5" font-size="12" stroke="#FFFFFF" text-anchor="start" dominant-baseline="hanging" font-family="Arial">W48</text>
<rect x="2233.0" y="143" width="33.5" height="20" fill="#000000" />
<text x="2237.25" y="147.5" font-size="12" stroke="#FFFFFF" text-anchor="start" dominant-baseline="hanging" font-family="Arial">W49</text>
<rect x="2268.0" y="143" width="33.5" height="20" fill="#000000" />
<text x="2272.25" y="147.5" font-size="12" stroke="#FFFFFF" text-anchor="start" dominant-baseline="hanging" font-family="Arial">W50</text>
<rect x="2303.0" y="143" width="33.5" height="20" fill="#000000" />
<text x="2307.25" y="147.5" font-size="12" stroke="#FFFFFF" text-anchor="start" dominant-baseline="hanging" font-family="Arial">W51</text>
<path d="M552.0,163 L552.0,315" stroke="#e6e6e6" stroke-opacity="50" stroke-width="1" />
<path d="M587.0,163 L587.0,315" stroke="#e6e6e6" stroke-opacity="50" stroke-width="1" />
<path d="M622.0,163 L622.0,315" stroke="#e6e6e6" stroke-opacity="50" stroke-width="1" />
<path d="M657.0,163 L657.0,315" stroke="#e6e6e6" stroke-opacity="50" stroke-width="1" />
<path d="M692.0,163 L692.0,315" stroke="#e6e6e6" stroke-opacity="50" stroke-width="1" />
<path d="M727.0,163 L727.0,315" stroke="#e6e6e6" stroke-opacity="50" stroke-width="1" />
<path d="M762.0,163 L762.0,315" stroke="#e6e6e6" stroke-opacity="50" stroke-width="1" />
<path d="M797.0,163 L797.0,315" stroke="#e6e6e6" stroke-opacity="50" stroke-width="1" />
<path d="M832.0,163 L832.0,315" stroke="#e6e6e6" stroke-opacity="50" stroke-width="1" />
<path d="M867.0,163 L867.0,315" stroke="#e6e6e6" stroke-opacity="50" stroke-width="1" />
<path d="M902.0,163 L902.0,315" stroke="#e6e6e6" stroke-opacity="50" stroke-width="1" />
<path d="M937.0,163 L937.0,315" stroke="#e6e6e6" stroke-opacity="50" stroke-width="1" />
<path d="M972.0,163 L972.0,315" stroke="#e6e6e6" stroke-opacity="50" stroke-width="1" />
<path d="M1007.0,163 L1007.0,315" stroke="#e6e6e6" stroke-opacity="50" stroke-width="1" />
<path d="M1042.0,163 L1042.0,315" stroke="#e6e6e6" stroke-opacity="50" stroke-width="1" />
<path d="M1077.0,163 L1077.0,315" stroke="#e6e6e6" stroke-opacity="50" stroke-width="1" />
<path d="M1112.0,163 L1112.0,315" stroke="#e6e6e6" stroke-opacity="50" stroke-width="1" />
<path d="M1147.0,163 L1147.0,315" stroke="#e6e6e6" stroke-opacity="50" stroke-width="1" />
<path d="M1182.0,163 L1182.0,315" stroke="#e6e6e6" stroke-opacity="50" stroke-width="1" />
<path d="M1217.0,163 L1217.0,315" stroke="#e6e6e6" stroke-opacity="50" stroke-width="1" />
<path d="M1252.0,163 L1252.0,315" stroke="#e6e6e6" stroke-opacity="50" stroke-width="1" />
<path d="M1287.0,163 L1287.0,315" stroke="#e6e6e6" stroke-opacity="50" stroke-width="1" />
<path d="M1322.0,163 L1322.0,315" stroke="#e6e6e6" stroke-opacity="50" stroke-width="1" />
<path d="M1357.0,163 L1357.0,315" stroke="#e6e6e6" stroke-opacity="50" stroke-width="1" />
<path d="M1392.0,163 L1392.0,315" stroke="#e6e6e6" stroke-opacity="50" stroke-width="1" />
<path d="M1427.0,163 L1427.0,315" stroke="#e6e6e6" stroke-opacity="50" stroke-width="1" />
<path d="M1462.0,163 L1462.0,315" stroke="#e6e6e6" stroke-opacity="50" stroke-width="1" />
<path d="M1497.0,163 L1497.0,315" stroke="#e6e6e6" stroke-opacity="50" stroke-width="1" />
<path d="M1532.0,163 L1532.0,315" stroke="#e6e6e6" stroke-opacity="50" stroke-width="1" />
<path d="M1567.0,163 L1567.0,315" stroke="#e6e6e6" stroke-opacity="50" stroke-width="1" />
<path d="M1602.0,163 L1602.0,315" stroke="#e6e6e6" stroke-opacity="50" stroke-width="1" />
<path d="M1637.0,163 L1637.0,315" stroke="#e6e6e6" stroke-opacity="50" stroke-width="1" />
<path d="M1672.0,163 L1672.0,315" stroke="#e6e6e6" stroke-opacity="50" stroke-width="1" />
<path d="M1707.0,163 L1707.0,315" stroke="#e6e6e6" stroke-opacity="50" stroke-width="1" />
<path d="M1742.0,163 L1742.0,315" stroke="#e6e6e6" stroke-opacity="50" stroke-width="1" />
<path d="M1777.0,163 L1777.0,315" stroke="#e6e6e6" stroke-opacity="50" stroke-width="1" />
<path d="M1812.0,163 L1812.0,315" stroke="#e6e6e6" stroke-opacity="50" stroke-width="1" />
<path d="M1847.0,163 L1847.0,315" stroke="#e6e6e6" stroke-opacity="50" stroke-width="1" />
<path d="M1882.0,163 L1882.0,315" stroke="#e6e6e6" stroke-opacity="50" stroke-width="1" />
<path d="M1917.0,163 L1917.0,315" stroke="#e6e6e6" stroke-opacity="50" stroke-width="1" />
<path d="M1952.0,163 L1952.0,315" stroke="#e6e6e6" stroke-opacity="50" stroke-width="1" />
<path d="M1987.0,163 L1987.0,315" stroke="#e6e6e6" stroke-opacity="50" stroke-width="1" />
<path d="M2022.0,163 L2022.0,315" stroke="#e6e6e6" stroke-opacity="50" stroke-width="1" />
<path d="M2057.0,163 L2057.0,315" stroke="#e6e6e6" stroke-opacity="50" stroke-width="1" />
<path d="M2092.0,163 L2092.0,315" stroke="#e6e6e6" stroke-opacity="50" stroke-width="1" />
<path d="M2127.0,163 L2127.0,315" stroke="#e6e6e6" stroke-opacity="50" stroke-width="1" />
<path d="M2162.0,163 L2162.0,315" stroke="#e6e6e6" stroke-opacity="50" stroke-width="1" />
<path d="M2197.0,163 L2197.0,315" stroke="#e6e6e6" stroke-opacity="50" stroke-width="1" />
<path d="M2232.0,163 L2232.0,315" stroke="#e6e6e6" stroke-opacity="50" stroke-width="1" />
<path d="M2267.0,163 L2267.0,315" stroke="#e6e6e6" stroke-opacity="50" stroke-width="1" />
<path d="M2302.0,163 L2302.0,315" stroke="#e6e6e6" stroke-opacity="50" stroke-width="1" />
<rect x="30" y="198" width="468.0" height="67" fill="#000000" />
<text x="45" y="226.0" font-size="12" stroke="#FFFFFF" text-anchor="start" dominant-baseline="hanging" font-family="Arial">Core Product Work Stream</text>
<rect x="518" y="213" width="1544" height="20" fill="#D9D9D9" />
<rect x="2137" y="213" width="198" height="20" fill="#D9D9D9" />
<text x="2196.0" y="217.5" font-size="12" stroke="#000000" text-anchor="start" dominant-baseline="hanging" font-family="Arial">Enhancements</text>
<path d="M774.5714285714286,210 L787.5714285714286,223.0 L774.5714285714286,236 L761.5714285714286,223.0" fill="#000000" />
<text x="765.5714285714286" y="195" font-size="10" text-anchor="start" dominant-baseline="middle" font-family="Arial" stroke="#000000">v.1.0</text>
<path d="M1609.7857142857142,210 L1622.7857142857142,223.0 L1609.7857142857142,236 L1596.7857142857142,223.0" fill="#000000" />
<text x="1600.7857142857142" y="195" font-size="10" text-anchor="start" dominant-baseline="middle" font-family="Arial" stroke="#000000">v.1.1</text>
<text x="1241.0" y="216.5" font-size="12" stroke="#000000" text-anchor="start" dominant-baseline="hanging" font-family="Arial">Base Functionality</text>
<rect x="842" y="238" width="333" height="20" fill="#D9D9D9" />
<rect x="1302" y="238" width="336" height="20" fill="#D9D9D9" />
<text x="1434.0" y="242.5" font-size="12" stroke="#000000" text-anchor="start" dominant-baseline="hanging" font-family="Arial">Showcase #2</text>
<text x="972.5" y="242.5" font-size="12" stroke="#000000" text-anchor="start" dominant-baseline="hanging" font-family="Arial">Showcase #1</text>
<rect x="30" y="280" width="468.0" height="25" fill="#000000" />
<text x="45" y="286.0" font-size="12" stroke="#FFFFFF" text-anchor="start" dominant-baseline="hanging" font-family="Arial">Mobility Work Stream</text>
<rect x="702" y="280" width="1633" height="20" fill="#D9D9D9" />
<text x="1451.5" y="283.5" font-size="12" stroke="#000000" text-anchor="start" dominant-baseline="hanging" font-family="Arial">Mobile App Development</text>
<text x="1121.0" y="375" font-size="13" text-anchor="start" dominant-baseline="middle" font-family="Arial" stroke="#000000">Generated by Roadmapper</text>
</svg>