<?xml version="1.0" encoding="UTF-8"?>
<svg xmlns="http://www.w3.org/2000/svg" xmlns:xlink="http://www.w3.org/1999/xlink"
     width="1400" height="387" viewBox="0 0 1400 387">
<defs>
</defs>
<rect x="0" y="0" width="1400" height="1000" fill="#FFFFFF" />
<text x="516.0" y="30" font-size="26" text-anchor="start" dominant-baseline="middle" font-family="Arial" stroke="#000000">SAMPLE ROADMAP 2022/2023</text>
<text x="613.0" y="59" font-size="18" text-anchor="start" dominant-baseline="middle" font-family="Arial" stroke="#000000">GodZone Corporation</text>
<rect x="318.0" y="80" width="526.5" height="20" fill="#000000" />
<text x="552.75" y="84.5" font-size="12" stroke="#FFFFFF" text-anchor="start" dominant-baseline="hanging" font-family="Arial">Year 2023</text>
<rect x="846.0" y="80" width="526.5" height="20" fill="#000000" />
<text x="1080.75" y="84.5" font-size="12" stroke="#FFFFFF" text-anchor="start" dominant-baseline="hanging" font-family="Arial">Year 2024</text>
<path d="M845.0,100 L845.0,282" width="1" fill="(230, 230, 230, 12750)" />
<rect x="30" y="135" width="268.0" height="82" fill="#000000" />
<text x="45" y="170.5" font-size="12" stroke="#FFFFFF" text-anchor="start" dominant-baseline="hanging" font-family="Arial">Core Product Work Stream</text>
<rect x="318" y="150" width="438" height="20" fill="#D9D9D9" />
<text x="487.0" y="153.5" font-size="12" stroke="#000000" text-anchor="start" dominant-baseline="hanging" font-family="Arial">Base Functionality</text>
<rect x="777" y="150" width="195" height="20" fill="#D9D9D9" />
<text x="833.5" y="154.5" font-size="12" stroke="#000000" text-anchor="start" dominant-baseline="hanging" font-family="Arial">Enhancements</text>
<path d="M976.3794520547945,147 L989.3794520547945,160.0 L976.3794520547945,173 L963.3794520547945,160.0" fill="#000000" />
<text x="966.7127853881278" y="132" font-size="10" text-anchor="start" dominant-baseline="middle" font-family="Arial" stroke="#000000">v.2.0</text>
<path d="M385.0892857142857,147 L398.0892857142857,160.0 L385.0892857142857,173 L372.0892857142857,160.0" fill="#000000" />
<text x="375.42261904761904" y="132" font-size="10" text-anchor="start" dominant-baseline="middle" font-family="Arial" stroke="#000000">v.1.0</text>
<path d="M626.6428571428571,147 L639.6428571428571,160.0 L626.6428571428571,173 L613.6428571428571,160.0" fill="#000000" />
<text x="616.9761904761905" y="132" font-size="10" text-anchor="start" dominant-baseline="middle" font-family="Arial" stroke="#000000">v.1.1</text>
<rect x="403" y="175" width="96" height="20" fill="#D9D9D9" />
<text x="414.0" y="179.5" font-size="12" stroke="#000000" text-anchor="start" dominant-baseline="hanging" font-family="Arial">Showcase #1</text>
<rect x="536" y="175" width="96" height="20" fill="#D9D9D9" />
<text x="547.0" y="179.5" font-size="12" stroke="#000000" text-anchor="start" dominant-baseline="hanging" font-family="Arial">Showcase #2</text>
<rect x="30" y="232" width="268.0" height="40" fill="#000000" />
<text x="45" y="245.5" font-size="12" stroke="#FFFFFF" text-anchor="start" dominant-baseline="hanging" font-family="Arial">Mobility Work Stream</text>
<rect x="362" y="232" width="972" height="20" fill="#D9D9D9" />
<text x="778.5" y="235.5" font-size="12" stroke="#000000" text-anchor="start" dominant-baseline="hanging" font-family="Arial">Mobile App Development</text>
<text x="668.8214285714287" y="113" font-size="12" text-anchor="start" dominant-baseline="middle" font-family="Arial" stroke="#000000">▼</text>
<path d="M673.8214285714287,124.0 L673.8214285714287,134.0" stroke="#000000" />
<path d="M673.8214285714287,139.04761904761904 L673.8214285714287,149.04761904761904" stroke="#000000" />
<path d="M673.8214285714287,154.0952380952381 L673.8214285714287,164.0952380952381" stroke="#000000" />
<path d="M673.8214285714287,169.14285714285714 L673.8214285714287,179.14285714285714" stroke="#000000" />
<path d="M673.8214285714287,184.1904761904762 L673.8214285714287,194.1904761904762" stroke="#000000" />
<path d="M673.8214285714287,199.23809523809524 L673.8214285714287,209.23809523809524" stroke="#000000" />
<path d="M673.8214285714287,214.28571428571428 L673.8214285714287,224.28571428571428" stroke="#000000" />
<path d="M673.8214285714287,229.33333333333331 L673.8214285714287,239.33333333333331" stroke="#000000" />
<path d="M673.8214285714287,244.38095238095238 L673.8214285714287,254.38095238095238" stroke="#000000" />
<path d="M673.8214285714287,259.42857142857144 L673.8214285714287,269.42857142857144" stroke="#000000" />
<path d="M673.8214285714287,274.4761904761905 L673.8214285714287,284.4761904761905" stroke="#000000" />
<text x="622.0" y="342" font-size="13" text-anchor="start" dominant-baseline="middle" font-family="Arial" stroke="#000000">Generated by Roadmapper</text>
</svg>