<?xml version="1.0" encoding="UTF-8"?>
<svg xmlns="http://www.w3.org/2000/svg" xmlns:xlink="http://www.w3.org/1999/xlink"
     width="1200" height="435" viewBox="0 0 1200 435">
<defs>
</defs>
<rect x="0" y="0" width="1200" height="1000" fill="#FFFFFF" />
<text x="416.0" y="30" font-size="26" text-anchor="start" dominant-baseline="middle" font-family="Arial" stroke="#000000">SAMPLE ROADMAP 2022/2023</text>
<text x="513.0" y="59" font-size="18" text-anchor="start" dominant-baseline="middle" font-family="Arial" stroke="#000000">GodZone Corporation</text>
<rect x="278.0" y="120" width="886.5" height="20" fill="#666666" />
<text x="692.75" y="124.5" font-size="12" stroke="#FFFFFF" text-anchor="start" dominant-baseline="hanging" font-family="Arial">Year 2023</text>
<rect x="278.0" y="143" width="72.5" height="20" fill="#666666" />
<text x="304.25" y="147.5" font-size="12" stroke="#FFFFFF" text-anchor="start" dominant-baseline="hanging" font-family="Arial">Jan</text>
<rect x="352.0" y="143" width="72.5" height="20" fill="#666666" />
<text x="377.75" y="147.5" font-size="12" stroke="#FFFFFF" text-anchor="start" dominant-baseline="hanging" font-family="Arial">Feb</text>
<rect x="426.0" y="143" width="72.5" height="20" fill="#666666" />
<text x="451.25" y="147.5" font-size="12" stroke="#FFFFFF" text-anchor="start" dominant-baseline="hanging" font-family="Arial">Mar</text>
<rect x="500.0" y="143" width="72.5" height="20" fill="#666666" />
<text x="526.25" y="146.5" font-size="12" stroke="#FFFFFF" text-anchor="start" dominant-baseline="hanging" font-family="Arial">Apr</text>
<rect x="574.0" y="143" width="72.5" height="20" fill="#666666" />
<text x="598.75" y="146.5" font-size="12" stroke="#FFFFFF" text-anchor="start" dominant-baseline="hanging" font-family="Arial">May</text>
<rect x="648.0" y="143" width="72.5" height="20" fill="#666666" />
<text x="674.25" y="147.5" font-size="12" stroke="#FFFFFF" text-anchor="start" dominant-baseline="hanging" font-family="Arial">Jun</text>
<rect x="722.0" y="143" width="72.5" height="20" fill="#666666" />
<text x="750.25" y="147.5" font-size="12" stroke="#FFFFFF" text-anchor="start" dominant-baseline="hanging" font-family="Arial">Jul</text>
<rect x="796.0" y="143" width="72.5" height="20" fill="#666666" />
<text x="821.25" y="146.5" font-size="12" stroke="#FFFFFF" text-anchor="start" dominant-baseline="hanging" font-family="Arial">Aug</text>
<rect x="870.0" y="143" width="72.5" height="20" fill="#666666" />
<text x="895.25" y="146.5" font-size="12" stroke="#FFFFFF" text-anchor="start" dominant-baseline="hanging" font-family="Arial">Sep</text>
<rect x="944.0" y="143" width="72.5" height="20" fill="#666666" />
<text x="970.75" y="147.5" font-size="12" stroke="#FFFFFF" text-anchor="start" dominant-baseline="hanging" font-family="Arial">Oct</text>
<rect x="1018.0" y="143" width="72.5" height="20" fill="#666666" />
<text x="1043.25" y="147.5" font-size="12" stroke="#FFFFFF" text-anchor="start" dominant-baseline="hanging" font-family="Arial">Nov</text>
<rect x="1092.0" y="143" width="72.5" height="20" fill="#666666" />
<text x="1117.25" y="147.5" font-size="12" stroke="#FFFFFF" text-anchor="start" dominant-baseline="hanging" font-family="Arial">Dec</text>
<path d="M351.0,163 L351.0,330" width="1" fill="(230, 230, 230, 12750)" />
<path d="M425.0,163 L425.0,330" width="1" fill="(230, 230, 230, 12750)" />
<path d="M499.0,163 L499.0,330" width="1" fill="(230, 230, 230, 12750)" />
<path d="M573.0,163 L573.0,330" width="1" fill="(230, 230, 230, 12750)" />
<path d="M647.0,163 L647.0,330" width="1" fill="(230, 230, 230, 12750)" />
<path d="M721.0,163 L721.0,330" width="1" fill="(230, 230, 230, 12750)" />
<path d="M795.0,163 L795.0,330" width="1" fill="(230, 230, 230, 12750)" />
<path d="M869.0,163 L869.0,330" width="1" fill="(230, 230, 230, 12750)" />
<path d="M943.0,163 L943.0,330" width="1" fill="(230, 230, 230, 12750)" />
<path d="M1017.0,163 L1017.0,330" width="1" fill="(230, 230, 230, 12750)" />
<path d="M1091.0,163 L1091.0,330" width="1" fill="(230, 230, 230, 12750)" />
<rect x="30" y="198" width="228.0" height="82" fill="#666666" />
<text x="45" y="233.5" font-size="12" stroke="#FFFFFF" text-anchor="start" dominant-baseline="hanging" font-family="Arial">Core Product Work Stream</text>
<rect x="278" y="213" width="720" height="20" fill="#D9D9D9" />
<text x="588.0" y="216.5" font-size="12" stroke="#000000" text-anchor="start" dominant-baseline="hanging" font-family="Arial">Base Functionality</text>
<rect x="1054" y="213" width="108" height="20" fill="#D9D9D9" />
<text x="1067.0" y="217.5" font-size="12" stroke="#000000" text-anchor="start" dominant-baseline="hanging" font-family="Arial">Enhancements</text>
<path d="M390.25,210 L403.25,223.0 L390.25,236 L377.25,223.0" fill="#B7B7B7" />
<text x="380.5833333333333" y="195" font-size="10" text-anchor="start" dominant-baseline="middle" font-family="Arial" stroke="#000000">v.1.0</text>
<path d="M798.0,210 L811.0,223.0 L798.0,236 L785.0,223.0" fill="#B7B7B7" />
<text x="788.3333333333334" y="195" font-size="10" text-anchor="start" dominant-baseline="middle" font-family="Arial" stroke="#000000">v.1.1</text>
<rect x="426" y="238" width="158" height="20" fill="#D9D9D9" />
<text x="468.0" y="242.5" font-size="12" stroke="#000000" text-anchor="start" dominant-baseline="hanging" font-family="Arial">Showcase #1</text>
<rect x="648" y="238" width="158" height="20" fill="#D9D9D9" />
<text x="690.0" y="242.5" font-size="12" stroke="#000000" text-anchor="start" dominant-baseline="hanging" font-family="Arial">Showcase #2</text>
<rect x="30" y="295" width="228.0" height="25" fill="#666666" />
<text x="45" y="301.0" font-size="12" stroke="#FFFFFF" text-anchor="start" dominant-baseline="hanging" font-family="Arial">Mobility Work Stream</text>
<rect x="352" y="295" width="792" height="20" fill="#D9D9D9" />
<text x="678.5" y="298.5" font-size="12" stroke="#000000" text-anchor="start" dominant-baseline="hanging" font-family="Arial">Mobile App Development</text>
<text x="738.75" y="176" font-size="12" text-anchor="start" dominant-baseline="middle" font-family="Arial" stroke="#000000">▼</text>
<path d="M743.75,187.0 L743.75,197.0" stroke="#000000" />
<path d="M743.75,202.05263157894737 L743.75,212.05263157894737" stroke="#000000" />
<path d="M743.75,217.10526315789474 L743.75,227.10526315789474" stroke="#000000" />
<path d="M743.75,232.1578947368421 L743.75,242.1578947368421" stroke="#000000" />
<path d="M743.75,247.21052631578948 L743.75,257.2105263157895" stroke="#000000" />
<path d="M743.75,262.2631578947368 L743.75,272.2631578947368" stroke="#000000" />
<path d="M743.75,277.3157894736842 L743.75,287.3157894736842" stroke="#000000" />
<path d="M743.75,292.36842105263156 L743.75,302.36842105263156" stroke="#000000" />
<path d="M743.75,307.42105263157896 L743.75,317.42105263157896" stroke="#000000" />
<path d="M743.75,322.4736842105263 L743.75,332.4736842105263" stroke="#000000" />
<text x="522.0" y="390" font-size="13" text-anchor="start" dominant-baseline="middle" font-family="Arial" stroke="#000000">Generated by Roadmapper</text>
</svg>