<?xml version="1.0" encoding="UTF-8"?>
<svg xmlns="http://www.w3.org/2000/svg" xmlns:xlink="http://www.w3.org/1999/xlink"
     width="1200" height="420" viewBox="0 0 1200 420">
<defs>
</defs>
<rect x="0" y="0" width="1200" height="1000" fill="#FFFFFF" />
<text x="416.0" y="30" font-size="26" text-anchor="start" dominant-baseline="middle" font-family="Arial" stroke="#000000">SAMPLE ROADMAP 2022/2023</text>
<text x="513.0" y="59" font-size="18" text-anchor="start" dominant-baseline="middle" font-family="Arial" stroke="#000000">GodZone Corporation</text>
<rect x="278.0" y="120" width="886.5" height="20" fill="#666666" />
<text x="692.75" y="124.5" font-size="12" stroke="#FFFFFF" text-anchor="start" dominant-baseline="hanging" font-family="Arial">Year 2023</text>
<rect x="278.0" y="143" width="72.5" height="20" fill="#666666" />
<text x="304.25" y="147.5" font-size="12" stroke="#FFFFFF" text-anchor="start" dominant-baseline="hanging" font-family="Arial">Jan</text>
<rect x="352.0" y="143" width="72.5" height="20" fill="#666666" />
<text x="377.75" y="147.5" font-size="12" stroke="#FFFFFF" text-anchor="start" dominant-baseline="hanging" font-family="Arial">Feb</text>
<rect x="426.0" y="143" width="72.5" height="20" fill="#666666" />
<text x="451.25" y="147.5" font-size="12" stroke="#FFFFFF" text-anchor="start" dominant-baseline="hanging" font-family="Arial">Mar</text>
<rect x="500.0" y="143" width="72.5" height="20" fill="#666666" />
<text x="526.25" y="146.5" font-size="12" stroke="#FFFFFF" text-anchor="start" dominant-baseline="hanging" font-family="Arial">Apr</text>
<rect x="574.0" y="143" width="72.5" height="20" fill="#666666" />
<text x="598.75" y="146.5" font-size="12" stroke="#FFFFFF" text-anchor="start" dominant-baseline="hanging" font-family="Arial">May</text>
<rect x="648.0" y="143" width="72.5" height="20" fill="#666666" />
<text x="674.25" y="147.5" font-size="12" stroke="#FFFFFF" text-anchor="start" dominant-baseline="hanging" font-family="Arial">Jun</text>
<rect x="722.0" y="143" width="72.5" height="20" fill="#666666" />
<text x="750.25" y="147.5" font-size="12" stroke="#FFFFFF" text-anchor="start" dominant-baseline="hanging" font-family="Arial">Jul</text>
<rect x="796.0" y="143" width="72.5" height="20" fill="#666666" />
<text x="821.25" y="146.5" font-size="12" stroke="#FFFFFF" text-anchor="start" dominant-baseline="hanging" font-family="Arial">Aug</text>
<rect x="870.0" y="143" width="72.5" height="20" fill="#666666" />
<text x="895.25" y="146.5" font-size="12" stroke="#FFFFFF" text-anchor="start" dominant-baseline="hanging" font-family="Arial">Sep</text>
<rect x="944.0" y="143" width="72.5" height="20" fill="#666666" />
<text x="970.75" y="147.5" font-size="12" stroke="#FFFFFF" text-anchor="start" dominant-baseline="hanging" font-family="Arial">Oct</text>
<rect x="1018.0" y="143" width="72.5" height="20" fill="#666666" />
<text x="1043.25" y="147.5" font-size="12" stroke="#FFFFFF" text-anchor="start" dominant-baseline="hanging" font-family="Arial">Nov</text>
<rect x="1092.0" y="143" width="72.5" height="20" fill="#666666" />
<text x="1117.25" y="147.5" font-size="12" stroke="#FFFFFF" text-anchor="start" dominant-baseline="hanging" font-family="Arial">Dec</text>
<path d="M351.0,163 L351.0,315" stroke="#e6e6e6" stroke-opacity="50" stroke-width="1" />
<path d="M425.0,163 L425.0,315" stroke="#e6e6e6" stroke-opacity="50" stroke-width="1" />
<path d="M499.0,163 L499.0,315" stroke="#e6e6e6" stroke-opacity="50" stroke-width="1" />
<path d="M573.0,163 L573.0,315" stroke="#e6e6e6" stroke-opacity="50" stroke-width="1" />
<path d="M647.0,163 L647.0,315" stroke="#e6e6e6" stroke-opacity="50" stroke-width="1" />
<path d="M721.0,163 L721.0,315" stroke="#e6e6e6" stroke-opacity="50" stroke-width="1" />
<path d="M795.0,163 L795.0,315" stroke="#e6e6e6" stroke-opacity="50" stroke-width="1" />
<path d="M869.0,163 L869.0,315" stroke="#e6e6e6" stroke-opacity="50" stroke-width="1" />
<path d="M943.0,163 L943.0,315" stroke="#e6e6e6" stroke-opacity="50" stroke-width="1" />
<path d="M1017.0,163 L1017.0,315" stroke="#e6e6e6" stroke-opacity="50" stroke-width="1" />
<path d="M1091.0,163 L1091.0,315" stroke="#e6e6e6" stroke-opacity="50" stroke-width="1" />
<rect x="30" y="198" width="228.0" height="67" fill="#666666" />
<text x="45" y="226.0" font-size="12" stroke="#FFFFFF" text-anchor="start" dominant-baseline="hanging" font-family="Arial">Core Product Work Stream</text>
<rect x="278" y="213" width="738" height="20" fill="#D9D9D9" />
<text x="597.0" y="216.5" font-size="12" stroke="#000000" text-anchor="start" dominant-baseline="hanging" font-family="Arial">Base Functionality</text>
<rect x="1054" y="213" width="110" height="20" fill="#D9D9D9" />
<text x="1068.0" y="217.5" font-size="12" stroke="#000000" text-anchor="start" dominant-baseline="hanging" font-family="Arial">Enhancements</text>
<path d="M390.25,210 L403.25,223.0 L390.25,236 L377.25,223.0" fill="#B7B7B7" />
<text x="380.5833333333333" y="195" font-size="10" text-anchor="start" dominant-baseline="middle" font-family="Arial" stroke="#000000">v.1.0</text>
<path d="M798.0,210 L811.0,223.0 L798.0,236 L785.0,223.0" fill="#B7B7B7" />
<text x="788.3333333333334" y="195" font-size="10" text-anchor="start" dominant-baseline="middle" font-family="Arial" stroke="#000000">v.1.1</text>
<rect x="426" y="238" width="162" height="20" fill="#D9D9D9" />
<text x="470.0" y="242.5" font-size="12" stroke="#000000" text-anchor="start" dominant-baseline="hanging" font-family="Arial">Showcase #1</text>
<rect x="648" y="238" width="162" height="20" fill="#D9D9D9" />
<text x="692.0" y="242.5" font-size="12" stroke="#000000" text-anchor="start" dominant-baseline="hanging" font-family="Arial">Showcase #2</text>
<rect x="30" y="280" width="228.0" height="25" fill="#666666" />
<text x="45" y="286.0" font-size="12" stroke="#FFFFFF" text-anchor="start" dominant-baseline="hanging" font-family="Arial">Mobility Work Stream</text>
<rect x="352" y="280" width="812" height="20" fill="#D9D9D9" />
<text x="688.5" y="283.5" font-size="12" stroke="#000000" text-anchor="start" dominant-baseline="hanging" font-family="Arial">Mobile App Development</text>
<text x="1063.75" y="176" font-size="12" text-anchor="start" dominant-baseline="middle" font-family="Arial" stroke="#000000">▼</text>
<path d="M1068.75,187.0 L1068.75,197.0" stroke="#000000" stroke-opacity="0.9" stroke-width="2" />
<path d="M1068.75,202.05882352941177 L1068.75,212.05882352941177" stroke="#000000" stroke-opacity="0.9" stroke-width="2" />
<path d="M1068.75,217.11764705882354 L1068.75,227.11764705882354" stroke="#000000" stroke-opacity="0.9" stroke-width="2" />
<path d="M1068.75,232.1764705882353 L1068.75,242.1764705882353" stroke="#000000" stroke-opacity="0.9" stroke-width="2" />
<path d="M1068.75,247.23529411764707 L1068.75,257.2352941176471" stroke="#000000" stroke-opacity="0.9" stroke-width="2" />
<path d="M1068.75,262.29411764705884 L1068.75,272.29411764705884" stroke="#000000" stroke-opacity="0.9" stroke-width="2" />
<path d="M1068.75,277.3529411764706 L1068.75,287.3529411764706" stroke="#000000" stroke-opacity="0.9" stroke-width="2" />
<path d="M1068.75,292.4117647058823 L1068.75,302.4117647058823" stroke="#000000" stroke-opacity="0.9" stroke-width="2" />
<path d="M1068.75,307.47058823529414 L1068.75,317.47058823529414" stroke="#000000" stroke-opacity="0.9" stroke-width="2" />
<text x="522.0" y="375" font-size="13" text-anchor="start" dominant-baseline="middle" font-family="Arial" stroke="#000000">Generated by Roadmapper</text>
</svg>