<?xml version="1.0" encoding="UTF-8"?>
<svg xmlns="http://www.w3.org/2000/svg" xmlns:xlink="http://www.w3.org/1999/xlink"
     width="1400" height="420" viewBox="0 0 1400 420">
<defs>
</defs>
<rect x="0" y="0" width="1400" height="1000" fill="#FFFFFF" />
<text x="516.0" y="30" font-size="26" text-anchor="start" dominant-baseline="middle" font-family="Arial" stroke="#000000">SAMPLE ROADMAP 2022/2023</text>
<text x="613.0" y="59" font-size="18" text-anchor="start" dominant-baseline="middle" font-family="Arial" stroke="#000000">GodZone Corporation</text>
<rect x="318.0" y="120" width="526.5" height="20" fill="#000000" />
<text x="552.75" y="124.5" font-size="12" stroke="#FFFFFF" text-anchor="start" dominant-baseline="hanging" font-family="Arial">Year 2023</text>
<rect x="846.0" y="120" width="526.5" height="20" fill="#000000" />
<text x="1080.75" y="124.5" font-size="12" stroke="#FFFFFF" text-anchor="start" dominant-baseline="hanging" font-family="Arial">Year 2024</text>
<rect x="318.0" y="143" width="262.5" height="20" fill="#000000" />
<text x="441.25" y="147.5" font-size="12" stroke="#FFFFFF" text-anchor="start" dominant-baseline="hanging" font-family="Arial">H1</text>
<rect x="582.0" y="143" width="262.5" height="20" fill="#000000" />
<text x="705.25" y="147.5" font-size="12" stroke="#FFFFFF" text-anchor="start" dominant-baseline="hanging" font-family="Arial">H2</text>
<rect x="846.0" y="143" width="262.5" height="20" fill="#000000" />
<text x="969.25" y="147.5" font-size="12" stroke="#FFFFFF" text-anchor="start" dominant-baseline="hanging" font-family="Arial">H1</text>
<rect x="1110.0" y="143" width="262.5" height="20" fill="#000000" />
<text x="1233.25" y="147.5" font-size="12" stroke="#FFFFFF" text-anchor="start" dominant-baseline="hanging" font-family="Arial">H2</text>
<path d="M581.0,163 L581.0,315" width="1" fill="(230, 230, 230, 12750)" />
<path d="M845.0,163 L845.0,315" width="1" fill="(230, 230, 230, 12750)" />
<path d="M1109.0,163 L1109.0,315" width="1" fill="(230, 230, 230, 12750)" />
<rect x="30" y="198" width="268.0" height="67" fill="#000000" />
<text x="45" y="226.0" font-size="12" stroke="#FFFFFF" text-anchor="start" dominant-baseline="hanging" font-family="Arial">Core Product Work Stream</text>
<rect x="318" y="213" width="439" height="20" fill="#D9D9D9" />
<text x="487.5" y="216.5" font-size="12" stroke="#000000" text-anchor="start" dominant-baseline="hanging" font-family="Arial">Base Functionality</text>
<rect x="778" y="213" width="197" height="20" fill="#D9D9D9" />
<text x="835.5" y="217.5" font-size="12" stroke="#000000" text-anchor="start" dominant-baseline="hanging" font-family="Arial">Enhancements</text>
<path d="M977.0745856353591,210 L990.0745856353591,223.0 L977.0745856353591,236 L964.0745856353591,223.0" fill="#000000" />
<text x="967.4079189686925" y="195" font-size="10" text-anchor="start" dominant-baseline="middle" font-family="Arial" stroke="#000000">v.2.0</text>
<path d="M385.625,210 L398.625,223.0 L385.625,236 L372.625,223.0" fill="#000000" />
<text x="375.9583333333333" y="195" font-size="10" text-anchor="start" dominant-baseline="middle" font-family="Arial" stroke="#000000">v.1.0</text>
<path d="M628.4672131147541,210 L641.4672131147541,223.0 L628.4672131147541,236 L615.4672131147541,223.0" fill="#000000" />
<text x="618.8005464480875" y="195" font-size="10" text-anchor="start" dominant-baseline="middle" font-family="Arial" stroke="#000000">v.1.1</text>
<rect x="404" y="238" width="97" height="20" fill="#D9D9D9" />
<text x="415.5" y="242.5" font-size="12" stroke="#000000" text-anchor="start" dominant-baseline="hanging" font-family="Arial">Showcase #1</text>
<rect x="538" y="238" width="97" height="20" fill="#D9D9D9" />
<text x="549.5" y="242.5" font-size="12" stroke="#000000" text-anchor="start" dominant-baseline="hanging" font-family="Arial">Showcase #2</text>
<rect x="30" y="280" width="268.0" height="25" fill="#000000" />
<text x="45" y="286.0" font-size="12" stroke="#FFFFFF" text-anchor="start" dominant-baseline="hanging" font-family="Arial">Mobility Work Stream</text>
<rect x="363" y="280" width="975" height="20" fill="#D9D9D9" />
<text x="781.0" y="283.5" font-size="12" stroke="#000000" text-anchor="start" dominant-baseline="hanging" font-family="Arial">Mobile App Development</text>
<text x="688.8852459016393" y="176" font-size="12" text-anchor="start" dominant-baseline="middle" font-family="Arial" stroke="#000000">▼</text>
<path d="M693.8852459016393,187.0 L693.8852459016393,197.0" stroke="#000000" />
<path d="M693.8852459016393,202.05882352941177 L693.8852459016393,212.05882352941177" stroke="#000000" />
<path d="M693.8852459016393,217.11764705882354 L693.8852459016393,227.11764705882354" stroke="#000000" />
<path d="M693.8852459016393,232.1764705882353 L693.8852459016393,242.1764705882353" stroke="#000000" />
<path d="M693.8852459016393,247.23529411764707 L693.8852459016393,257.2352941176471" stroke="#000000" />
<path d="M693.8852459016393,262.29411764705884 L693.8852459016393,272.29411764705884" stroke="#000000" />
<path d="M693.8852459016393,277.3529411764706 L693.8852459016393,287.3529411764706" stroke="#000000" />
<path d="M693.8852459016393,292.4117647058823 L693.8852459016393,302.4117647058823" stroke="#000000" />
<path d="M693.8852459016393,307.47058823529414 L693.8852459016393,317.47058823529414" stroke="#000000" />
<text x="622.0" y="375" font-size="13" text-anchor="start" dominant-baseline="middle" font-family="Arial" stroke="#000000">Generated by Roadmapper</text>
</svg>