<?xml version="1.0" encoding="UTF-8"?>
<svg xmlns="http://www.w3.org/2000/svg" xmlns:xlink="http://www.w3.org/1999/xlink"
     width="1200" height="227" viewBox="0 0 1200 227">
<defs>
</defs>
<rect x="0" y="0" width="1200" height="500" fill="black" />
<rect x="0" y="0" width="1200" height="500" fill="black" />
<text x="409.5" y="30" font-size="26" text-anchor="start" dominant-baseline="middle" font-family="Arial" stroke="#B45F06">Black Background Test Roadmap</text>
<rect x="278.0" y="99" width="886.5" height="20" fill="#B45F06" />
<text x="692.75" y="103.5" font-size="12" stroke="#FFFFFF" text-anchor="start" dominant-baseline="hanging" font-family="Arial">Year 2023</text>
<rect x="278.0" y="122" width="72.5" height="20" fill="#B45F06" />
<text x="304.25" y="126.5" font-size="12" stroke="#FFFFFF" text-anchor="start" dominant-baseline="hanging" font-family="Arial">Jan</text>
<rect x="352.0" y="122" width="72.5" height="20" fill="#B45F06" />
<text x="377.75" y="126.5" font-size="12" stroke="#FFFFFF" text-anchor="start" dominant-baseline="hanging" font-family="Arial">Feb</text>
<rect x="426.0" y="122" width="72.5" height="20" fill="#B45F06" />
<text x="451.25" y="126.5" font-size="12" stroke="#FFFFFF" text-anchor="start" dominant-baseline="hanging" font-family="Arial">Mar</text>
<rect x="500.0" y="122" width="72.5" height="20" fill="#B45F06" />
<text x="526.25" y="125.5" font-size="12" stroke="#FFFFFF" text-anchor="start" dominant-baseline="hanging" font-family="Arial">Apr</text>
<rect x="574.0" y="122" width="72.5" height="20" fill="#B45F06" />
<text x="598.75" y="125.5" font-size="12" stroke="#FFFFFF" text-anchor="start" dominant-baseline="hanging" font-family="Arial">May</text>
<rect x="648.0" y="122" width="72.5" height="20" fill="#B45F06" />
<text x="674.25" y="126.5" font-size="12" stroke="#FFFFFF" text-anchor="start" dominant-baseline="hanging" font-family="Arial">Jun</text>
<rect x="722.0" y="122" width="72.5" height="20" fill="#B45F06" />
<text x="750.25" y="126.5" font-size="12" stroke="#FFFFFF" text-anchor="start" dominant-baseline="hanging" font-family="Arial">Jul</text>
<rect x="796.0" y="122" width="72.5" height="20" fill="#B45F06" />
<text x="821.25" y="125.5" font-size="12" stroke="#FFFFFF" text-anchor="start" dominant-baseline="hanging" font-family="Arial">Aug</text>
<rect x="870.0" y="122" width="72.5" height="20" fill="#B45F06" />
<text x="895.25" y="125.5" font-size="12" stroke="#FFFFFF" text-anchor="start" dominant-baseline="hanging" font-family="Arial">Sep</text>
<rect x="944.0" y="122" width="72.5" height="20" fill="#B45F06" />
<text x="970.75" y="126.5" font-size="12" stroke="#FFFFFF" text-anchor="start" dominant-baseline="hanging" font-family="Arial">Oct</text>
<rect x="1018.0" y="122" width="72.5" height="20" fill="#B45F06" />
<text x="1043.25" y="126.5" font-size="12" stroke="#FFFFFF" text-anchor="start" dominant-baseline="hanging" font-family="Arial">Nov</text>
<rect x="1092.0" y="122" width="72.5" height="20" fill="#B45F06" />
<text x="1117.25" y="126.5" font-size="12" stroke="#FFFFFF" text-anchor="start" dominant-baseline="hanging" font-family="Arial">Dec</text>
<path d="M351.0,142 L351.0,207" stroke="#e6e6e6" stroke-opacity="50" stroke-width="1" />
<path d="M425.0,142 L425.0,207" stroke="#e6e6e6" stroke-opacity="50" stroke-width="1" />
<path d="M499.0,142 L499.0,207" stroke="#e6e6e6" stroke-opacity="50" stroke-width="1" />
<path d="M573.0,142 L573.0,207" stroke="#e6e6e6" stroke-opacity="50" stroke-width="1" />
<path d="M647.0,142 L647.0,207" stroke="#e6e6e6" stroke-opacity="50" stroke-width="1" />
<path d="M721.0,142 L721.0,207" stroke="#e6e6e6" stroke-opacity="50" stroke-width="1" />
<path d="M795.0,142 L795.0,207" stroke="#e6e6e6" stroke-opacity="50" stroke-width="1" />
<path d="M869.0,142 L869.0,207" stroke="#e6e6e6" stroke-opacity="50" stroke-width="1" />
<path d="M943.0,142 L943.0,207" stroke="#e6e6e6" stroke-opacity="50" stroke-width="1" />
<path d="M1017.0,142 L1017.0,207" stroke="#e6e6e6" stroke-opacity="50" stroke-width="1" />
<path d="M1091.0,142 L1091.0,207" stroke="#e6e6e6" stroke-opacity="50" stroke-width="1" />
<rect x="30" y="157" width="228.0" height="40" fill="#B45F06" />
<text x="106.5" y="171.5" font-size="12" stroke="#FFFFFF" text-anchor="start" dominant-baseline="hanging" font-family="Arial">Workstream 1</text>
<rect x="278" y="172" width="294" height="20" fill="#F6B26B" />
<text x="400.5" y="176.5" font-size="12" stroke="#000000" text-anchor="start" dominant-baseline="hanging" font-family="Arial">Task 1-A</text>
<rect x="610" y="172" width="258" height="20" fill="#F6B26B" />
<text x="715.0" y="176.5" font-size="12" stroke="#000000" text-anchor="start" dominant-baseline="hanging" font-family="Arial">Task 2-B</text>
<path d="M819.75,169 L832.75,182.0 L819.75,195 L806.75,182.0" fill="#B45F06" />
<text x="800.0833333333334" y="154" font-size="10" text-anchor="start" dominant-baseline="middle" font-family="Arial" stroke="#B45F06">Milestone 2</text>
<path d="M502.0,169 L515.0,182.0 L502.0,195 L489.0,182.0" fill="#B45F06" />
<text x="482.3333333333333" y="154" font-size="10" text-anchor="start" dominant-baseline="middle" font-family="Arial" stroke="#B45F06">Milestone 1</text>
</svg>