<?xml version="1.0" encoding="UTF-8"?>
<svg xmlns="http://www.w3.org/2000/svg" xmlns:xlink="http://www.w3.org/1999/xlink"
     width="600" height="438" viewBox="0 0 600 438">
<defs>
</defs>
<rect x="0" y="0" width="600" height="500" fill="#FFFFFF" />
<text x="185.5" y="30" font-size="26" text-anchor="start" dominant-baseline="middle" font-family="Arial" stroke="#000000">My Demo Roadmap</text>
<rect x="158.0" y="99" width="414.5" height="20" fill="#000000" />
<text x="336.75" y="103.5" font-size="12" stroke="#FFFFFF" text-anchor="start" dominant-baseline="hanging" font-family="Arial">Year 2023</text>
<rect x="158.0" y="122" width="102.5" height="20" fill="#000000" />
<text x="201.25" y="126.0" font-size="12" stroke="#FFFFFF" text-anchor="start" dominant-baseline="hanging" font-family="Arial">Q1</text>
<rect x="262.0" y="122" width="102.5" height="20" fill="#000000" />
<text x="305.25" y="126.0" font-size="12" stroke="#FFFFFF" text-anchor="start" dominant-baseline="hanging" font-family="Arial">Q2</text>
<rect x="366.0" y="122" width="102.5" height="20" fill="#000000" />
<text x="409.25" y="126.0" font-size="12" stroke="#FFFFFF" text-anchor="start" dominant-baseline="hanging" font-family="Arial">Q3</text>
<rect x="470.0" y="122" width="102.5" height="20" fill="#000000" />
<text x="513.25" y="126.0" font-size="12" stroke="#FFFFFF" text-anchor="start" dominant-baseline="hanging" font-family="Arial">Q4</text>
<path d="M261.0,142 L261.0,333" width="1" fill="(230, 230, 230, 12750)" />
<path d="M365.0,142 L365.0,333" width="1" fill="(230, 230, 230, 12750)" />
<path d="M469.0,142 L469.0,333" width="1" fill="(230, 230, 230, 12750)" />
<rect x="30" y="177" width="108.0" height="52" fill="#000000" />
<text x="46.5" y="197.5" font-size="12" stroke="#FFFFFF" text-anchor="start" dominant-baseline="hanging" font-family="Arial">Workstream 1</text>
<rect x="158" y="177" width="137" height="20" fill="#D9D9D9" />
<text x="202.0" y="181.5" font-size="12" stroke="#000000" text-anchor="start" dominant-baseline="hanging" font-family="Arial">Task 1-A</text>
<rect x="312" y="177" width="121" height="20" fill="#D9D9D9" />
<text x="348.5" y="181.5" font-size="12" stroke="#000000" text-anchor="start" dominant-baseline="hanging" font-family="Arial">Task 2-B</text>
<rect x="262" y="202" width="102" height="20" fill="#D9D9D9" />
<text x="288.5" y="206.5" font-size="12" stroke="#000000" text-anchor="start" dominant-baseline="hanging" font-family="Arial">Task 3-C</text>
<rect x="30" y="244" width="108.0" height="79" fill="#000000" />
<text x="46.5" y="278.0" font-size="12" stroke="#FFFFFF" text-anchor="start" dominant-baseline="hanging" font-family="Arial">Workstream 2</text>
<rect x="262" y="244" width="102" height="20" fill="#D9D9D9" />
<text x="288.5" y="248.5" font-size="12" stroke="#000000" text-anchor="start" dominant-baseline="hanging" font-family="Arial">Task 2-A</text>
<rect x="296" y="269" width="102" height="20" fill="#D9D9D9" />
<text x="323.0" y="273.5" font-size="12" stroke="#000000" text-anchor="start" dominant-baseline="hanging" font-family="Arial">Task 2-B</text>
<rect x="331" y="294" width="102" height="20" fill="#D9D9D9" />
<text x="357.5" y="298.5" font-size="12" stroke="#000000" text-anchor="start" dominant-baseline="hanging" font-family="Arial">Task 2-C</text>
<text x="448.85714285714283" y="155" font-size="12" text-anchor="start" dominant-baseline="middle" font-family="Arial" stroke="#000000">▼</text>
<path d="M453.85714285714283,166.0 L453.85714285714283,176.0" stroke="#000000" />
<path d="M453.85714285714283,181.1818181818182 L453.85714285714283,191.1818181818182" stroke="#000000" />
<path d="M453.85714285714283,196.36363636363637 L453.85714285714283,206.36363636363637" stroke="#000000" />
<path d="M453.85714285714283,211.54545454545456 L453.85714285714283,221.54545454545456" stroke="#000000" />
<path d="M453.85714285714283,226.72727272727272 L453.85714285714283,236.72727272727272" stroke="#000000" />
<path d="M453.85714285714283,241.9090909090909 L453.85714285714283,251.9090909090909" stroke="#000000" />
<path d="M453.85714285714283,257.0909090909091 L453.85714285714283,267.0909090909091" stroke="#000000" />
<path d="M453.85714285714283,272.27272727272725 L453.85714285714283,282.27272727272725" stroke="#000000" />
<path d="M453.85714285714283,287.45454545454544 L453.85714285714283,297.45454545454544" stroke="#000000" />
<path d="M453.85714285714283,302.6363636363636 L453.85714285714283,312.6363636363636" stroke="#000000" />
<path d="M453.85714285714283,317.8181818181818 L453.85714285714283,327.8181818181818" stroke="#000000" />
<path d="M453.85714285714283,333.0 L453.85714285714283,343.0" stroke="#000000" />
<text x="222.0" y="393" font-size="13" text-anchor="start" dominant-baseline="middle" font-family="Arial" stroke="#000000">Generated by Roadmapper</text>
</svg>