<?xml version="1.0" encoding="UTF-8"?>
<svg xmlns="http://www.w3.org/2000/svg" xmlns:xlink="http://www.w3.org/1999/xlink"
     width="600" height="513" viewBox="0 0 600 513">
<defs>
</defs>
<rect x="0" y="0" width="600" height="500" fill="#FFFFFF" />
<text x="185.5" y="30" font-size="26" text-anchor="start" dominant-baseline="middle" font-family="Arial" stroke="#0B5394">My Demo Roadmap</text>
<rect x="158.0" y="99" width="414.5" height="20" fill="#0B5394" />
<text x="336.75" y="103.5" font-size="12" stroke="#FFFFFF" text-anchor="start" dominant-baseline="hanging" font-family="Arial">Year 2023</text>
<rect x="158.0" y="122" width="102.5" height="20" fill="#0B5394" />
<text x="201.25" y="126.0" font-size="12" stroke="#FFFFFF" text-anchor="start" dominant-baseline="hanging" font-family="Arial">Q1</text>
<rect x="262.0" y="122" width="102.5" height="20" fill="#0B5394" />
<text x="305.25" y="126.0" font-size="12" stroke="#FFFFFF" text-anchor="start" dominant-baseline="hanging" font-family="Arial">Q2</text>
<rect x="366.0" y="122" width="102.5" height="20" fill="#0B5394" />
<text x="409.25" y="126.0" font-size="12" stroke="#FFFFFF" text-anchor="start" dominant-baseline="hanging" font-family="Arial">Q3</text>
<rect x="470.0" y="122" width="102.5" height="20" fill="#0B5394" />
<text x="513.25" y="126.0" font-size="12" stroke="#FFFFFF" text-anchor="start" dominant-baseline="hanging" font-family="Arial">Q4</text>
<path d="M261.0,142 L261.0,408" width="1" fill="(230, 230, 230, 12750)" />
<path d="M365.0,142 L365.0,408" width="1" fill="(230, 230, 230, 12750)" />
<path d="M469.0,142 L469.0,408" width="1" fill="(230, 230, 230, 12750)" />
<rect x="30" y="177" width="108.0" height="82" fill="#0B5394" />
<text x="46.5" y="212.5" font-size="12" stroke="#FFFFFF" text-anchor="start" dominant-baseline="hanging" font-family="Arial">Workstream 1</text>
<rect x="158" y="177" width="135" height="20" fill="#9FC5E8" />
<text x="201.0" y="181.5" font-size="12" stroke="#000000" text-anchor="start" dominant-baseline="hanging" font-family="Arial">Task 1-A</text>
<rect x="312" y="177" width="119" height="20" fill="#9FC5E8" />
<text x="347.5" y="181.5" font-size="12" stroke="#000000" text-anchor="start" dominant-baseline="hanging" font-family="Arial">Task 2-B</text>
<rect x="262" y="202" width="102" height="20" fill="#9FC5E8" />
<text x="288.5" y="206.5" font-size="12" stroke="#000000" text-anchor="start" dominant-baseline="hanging" font-family="Arial">Task 3-C</text>
<rect x="30" y="274" width="108.0" height="124" fill="#0B5394" />
<text x="46.5" y="330.5" font-size="12" stroke="#FFFFFF" text-anchor="start" dominant-baseline="hanging" font-family="Arial">Workstream 2</text>
<rect x="262" y="274" width="102" height="20" fill="#9FC5E8" />
<text x="288.5" y="278.5" font-size="12" stroke="#000000" text-anchor="start" dominant-baseline="hanging" font-family="Arial">Task 2-A</text>
<rect x="296" y="299" width="100" height="20" fill="#9FC5E8" />
<text x="322.0" y="303.5" font-size="12" stroke="#000000" text-anchor="start" dominant-baseline="hanging" font-family="Arial">Task 2-B</text>
<rect x="331" y="324" width="100" height="20" fill="#9FC5E8" />
<text x="356.5" y="328.5" font-size="12" stroke="#000000" text-anchor="start" dominant-baseline="hanging" font-family="Arial">Task 2-C</text>
<text x="434.2142857142857" y="155" font-size="12" text-anchor="start" dominant-baseline="middle" font-family="Arial" stroke="#0B5394">▼</text>
<path d="M439.2142857142857,166.0 L439.2142857142857,176.0" stroke="#0B5394" />
<path d="M439.2142857142857,180.66666666666666 L439.2142857142857,190.66666666666666" stroke="#0B5394" />
<path d="M439.2142857142857,195.33333333333334 L439.2142857142857,205.33333333333334" stroke="#0B5394" />
<path d="M439.2142857142857,210.0 L439.2142857142857,220.0" stroke="#0B5394" />
<path d="M439.2142857142857,224.66666666666666 L439.2142857142857,234.66666666666666" stroke="#0B5394" />
<path d="M439.2142857142857,239.33333333333331 L439.2142857142857,249.33333333333331" stroke="#0B5394" />
<path d="M439.2142857142857,254.0 L439.2142857142857,264.0" stroke="#0B5394" />
<path d="M439.2142857142857,268.66666666666663 L439.2142857142857,278.66666666666663" stroke="#0B5394" />
<path d="M439.2142857142857,283.3333333333333 L439.2142857142857,293.3333333333333" stroke="#0B5394" />
<path d="M439.2142857142857,298.0 L439.2142857142857,308.0" stroke="#0B5394" />
<path d="M439.2142857142857,312.66666666666663 L439.2142857142857,322.66666666666663" stroke="#0B5394" />
<path d="M439.2142857142857,327.3333333333333 L439.2142857142857,337.3333333333333" stroke="#0B5394" />
<path d="M439.2142857142857,342.0 L439.2142857142857,352.0" stroke="#0B5394" />
<path d="M439.2142857142857,356.66666666666663 L439.2142857142857,366.66666666666663" stroke="#0B5394" />
<path d="M439.2142857142857,371.3333333333333 L439.2142857142857,381.3333333333333" stroke="#0B5394" />
<path d="M439.2142857142857,386.0 L439.2142857142857,396.0" stroke="#0B5394" />
<path d="M439.2142857142857,400.66666666666663 L439.2142857142857,410.66666666666663" stroke="#0B5394" />
<text x="222.0" y="468" font-size="13" text-anchor="start" dominant-baseline="middle" font-family="Arial" stroke="#0B5394">Generated by Roadmapper</text>
</svg>