<?xml version="1.0" encoding="UTF-8"?>
<svg xmlns="http://www.w3.org/2000/svg" xmlns:xlink="http://www.w3.org/1999/xlink"
     width="600" height="438" viewBox="0 0 600 438">
<defs>
</defs>
<rect x="0" y="0" width="600" height="500" fill="#FFFFFF" />
<text x="184.5" y="30" font-size="26" text-anchor="start" dominant-baseline="middle" font-family="Arial" stroke="#000000">My Demo Roadmap</text>
<rect x="158.0" y="99" width="414.5" height="20" fill="#666666" />
<text x="337.75" y="103.5" font-size="12" stroke="#FFFFFF" text-anchor="start" dominant-baseline="hanging" font-family="Arial">Year 2023</text>
<rect x="158.0" y="122" width="102.5" height="20" fill="#666666" />
<text x="201.25" y="126.0" font-size="12" stroke="#FFFFFF" text-anchor="start" dominant-baseline="hanging" font-family="Arial">Q1</text>
<rect x="262.0" y="122" width="102.5" height="20" fill="#666666" />
<text x="305.25" y="126.0" font-size="12" stroke="#FFFFFF" text-anchor="start" dominant-baseline="hanging" font-family="Arial">Q2</text>
<rect x="366.0" y="122" width="102.5" height="20" fill="#666666" />
<text x="409.25" y="126.0" font-size="12" stroke="#FFFFFF" text-anchor="start" dominant-baseline="hanging" font-family="Arial">Q3</text>
<rect x="470.0" y="122" width="102.5" height="20" fill="#666666" />
<text x="513.25" y="126.0" font-size="12" stroke="#FFFFFF" text-anchor="start" dominant-baseline="hanging" font-family="Arial">Q4</text>
<path d="M261.0,142 L261.0,333" stroke="#e6e6e6" stroke-opacity="50" stroke-width="1" />
<path d="M365.0,142 L365.0,333" stroke="#e6e6e6" stroke-opacity="50" stroke-width="1" />
<path d="M469.0,142 L469.0,333" stroke="#e6e6e6" stroke-opacity="50" stroke-width="1" />
<rect x="30" y="177" width="108.0" height="52" fill="#666666" />
<text x="47.0" y="197.5" font-size="12" stroke="#FFFFFF" text-anchor="start" dominant-baseline="hanging" font-family="Arial">Workstream 1</text>
<rect x="158" y="177" width="137" height="20" fill="#D9D9D9" />
<rect x="312" y="177" width="121" height="20" fill="#D9D9D9" />
<text x="349.0" y="181.5" font-size="12" stroke="#000000" text-anchor="start" dominant-baseline="hanging" font-family="Arial">Task 2-B</text>
<text x="202.5" y="181.5" font-size="12" stroke="#000000" text-anchor="start" dominant-baseline="hanging" font-family="Arial">Task 1-A</text>
<rect x="262" y="202" width="102" height="20" fill="#D9D9D9" />
<text x="289.0" y="206.5" font-size="12" stroke="#000000" text-anchor="start" dominant-baseline="hanging" font-family="Arial">Task 3-C</text>
<rect x="30" y="244" width="108.0" height="79" fill="#666666" />
<text x="46.5" y="278.0" font-size="12" stroke="#FFFFFF" text-anchor="start" dominant-baseline="hanging" font-family="Arial">Workstream 2</text>
<rect x="262" y="244" width="102" height="20" fill="#D9D9D9" />
<text x="289.0" y="248.5" font-size="12" stroke="#000000" text-anchor="start" dominant-baseline="hanging" font-family="Arial">Task 2-A</text>
<rect x="296" y="269" width="102" height="20" fill="#D9D9D9" />
<text x="323.5" y="273.5" font-size="12" stroke="#000000" text-anchor="start" dominant-baseline="hanging" font-family="Arial">Task 2-B</text>
<rect x="331" y="294" width="102" height="20" fill="#D9D9D9" />
<text x="358.0" y="298.5" font-size="12" stroke="#000000" text-anchor="start" dominant-baseline="hanging" font-family="Arial">Task 2-C</text>
<text x="221.0" y="393" font-size="13" text-anchor="start" dominant-baseline="middle" font-family="Arial" stroke="#000000">Generated by Roadmapper</text>
</svg>