<?xml version="1.0" encoding="UTF-8"?>
<svg xmlns="http://www.w3.org/2000/svg" xmlns:xlink="http://www.w3.org/1999/xlink"
     width="800" height="572" viewBox="0 0 800 572">
<defs>
</defs>
<rect x="0" y="0" width="800" height="700" fill="#FFFFFF" />
<text x="262.0" y="30" font-size="26" text-anchor="start" dominant-baseline="middle" font-family="Arial" stroke="#000000">Strategy Roadmap 2023</text>
<text x="297.5" y="64" font-size="18" text-anchor="start" dominant-baseline="middle" font-family="Arial" stroke="#000000">Matariki Technologies Ltd</text>
<rect x="198.0" y="125" width="574.5" height="20" fill="#4C5B5C" />
<text x="456.75" y="129.5" font-size="12" stroke="#FFFFFF" text-anchor="start" dominant-baseline="hanging" font-family="Arial">Year 2023</text>
<rect x="198.0" y="148" width="142.5" height="20" fill="#4C5B5C" />
<text x="261.25" y="152.0" font-size="12" stroke="#FFFFFF" text-anchor="start" dominant-baseline="hanging" font-family="Arial">Q1</text>
<rect x="342.0" y="148" width="142.5" height="20" fill="#4C5B5C" />
<text x="405.25" y="152.0" font-size="12" stroke="#FFFFFF" text-anchor="start" dominant-baseline="hanging" font-family="Arial">Q2</text>
<rect x="486.0" y="148" width="142.5" height="20" fill="#4C5B5C" />
<text x="549.25" y="152.0" font-size="12" stroke="#FFFFFF" text-anchor="start" dominant-baseline="hanging" font-family="Arial">Q3</text>
<rect x="630.0" y="148" width="142.5" height="20" fill="#4C5B5C" />
<text x="693.25" y="152.0" font-size="12" stroke="#FFFFFF" text-anchor="start" dominant-baseline="hanging" font-family="Arial">Q4</text>
<path d="M341.0,168 L341.0,471" width="1" fill="(230, 230, 230, 12750)" />
<path d="M485.0,168 L485.0,471" width="1" fill="(230, 230, 230, 12750)" />
<path d="M629.0,168 L629.0,471" width="1" fill="(230, 230, 230, 12750)" />
<rect x="30" y="203" width="148.0" height="52" fill="#FCA311" />
<text x="63.5" y="222.5" font-size="12" stroke="#FFFFFF" text-anchor="start" dominant-baseline="hanging" font-family="Arial">People Stream</text>
<rect x="198" y="203" width="187" height="20" fill="#8FBC94" />
<text x="218.5" y="206.5" font-size="12" stroke="#000000" text-anchor="start" dominant-baseline="hanging" font-family="Arial">Develop Inclusion Strategy</text>
<rect x="389" y="203" width="377" height="20" fill="#8FBC94" />
<text x="471.5" y="206.5" font-size="12" stroke="#000000" text-anchor="start" dominant-baseline="hanging" font-family="Arial">Promote diversity, equity, and inclusion</text>
<rect x="292" y="228" width="425" height="20" fill="#8FBC94" />
<text x="401.0" y="231.5" font-size="12" stroke="#000000" text-anchor="start" dominant-baseline="hanging" font-family="Arial">Implement a sustainability programme</text>
<rect x="30" y="270" width="148.0" height="82" fill="#FCA311" />
<text x="61.0" y="305.5" font-size="12" stroke="#FFFFFF" text-anchor="start" dominant-baseline="hanging" font-family="Arial">Process Stream</text>
<rect x="247" y="270" width="469" height="20" fill="#8FBC94" />
<text x="356.0" y="273.5" font-size="12" stroke="#000000" text-anchor="start" dominant-baseline="hanging" font-family="Arial">Implement Business Improvement Programme</text>
<rect x="486" y="310" width="282" height="20" fill="#8FBC94" />
<text x="571.5" y="313.5" font-size="12" stroke="#000000" text-anchor="start" dominant-baseline="hanging" font-family="Arial">Automate processes</text>
<path d="M536.5439560439561,307 L549.5439560439561,320.0 L536.5439560439561,333 L523.5439560439561,320.0" fill="#3D6642" />
<text x="504.5439560439561" y="292" font-size="12" text-anchor="start" dominant-baseline="middle" font-family="Arial" stroke="#000000">30% Automated </text>
<path d="M727.521978021978,307 L740.521978021978,320.0 L727.521978021978,333 L714.521978021978,320.0" fill="#3D6642" />
<text x="695.521978021978" y="292" font-size="12" text-anchor="start" dominant-baseline="middle" font-family="Arial" stroke="#000000">60% Automated </text>
<rect x="30" y="367" width="148.0" height="94" fill="#FCA311" />
<text x="71.0" y="408.5" font-size="12" stroke="#FFFFFF" text-anchor="start" dominant-baseline="hanging" font-family="Arial">Tool Stream</text>
<rect x="198" y="367" width="187" height="20" fill="#8FBC94" />
<text x="240.0" y="370.5" font-size="12" stroke="#000000" text-anchor="start" dominant-baseline="hanging" font-family="Arial">Implement strategy</text>
<rect x="247" y="392" width="327" height="20" fill="#8FBC94" />
<text x="368.5" y="396.5" font-size="12" stroke="#000000" text-anchor="start" dominant-baseline="hanging" font-family="Arial">Tools Selection</text>
<rect x="342" y="432" width="377" height="20" fill="#8FBC94" />
<text x="445.0" y="436.5" font-size="12" stroke="#000000" text-anchor="start" dominant-baseline="hanging" font-family="Arial">Centralized Tool Administration</text>
<path d="M727.521978021978,429 L740.521978021978,442.0 L727.521978021978,455 L714.521978021978,442.0" fill="#3D6642" />
<text x="691.8553113553114" y="414" font-size="12" text-anchor="start" dominant-baseline="middle" font-family="Arial" stroke="#000000">Admin Centralised</text>
<text x="493.5274725274725" y="181" font-size="12" text-anchor="start" dominant-baseline="middle" font-family="Arial" stroke="#000000">▼</text>
<path d="M498.5274725274725,192.0 L498.5274725274725,202.0" stroke="#000000" />
<path d="M498.5274725274725,206.68421052631578 L498.5274725274725,216.68421052631578" stroke="#000000" />
<path d="M498.5274725274725,221.3684210526316 L498.5274725274725,231.3684210526316" stroke="#000000" />
<path d="M498.5274725274725,236.05263157894737 L498.5274725274725,246.05263157894737" stroke="#000000" />
<path d="M498.5274725274725,250.73684210526315 L498.5274725274725,260.7368421052631" stroke="#000000" />
<path d="M498.5274725274725,265.42105263157896 L498.5274725274725,275.42105263157896" stroke="#000000" />
<path d="M498.5274725274725,280.10526315789474 L498.5274725274725,290.10526315789474" stroke="#000000" />
<path d="M498.5274725274725,294.7894736842105 L498.5274725274725,304.7894736842105" stroke="#000000" />
<path d="M498.5274725274725,309.4736842105263 L498.5274725274725,319.4736842105263" stroke="#000000" />
<path d="M498.5274725274725,324.1578947368421 L498.5274725274725,334.1578947368421" stroke="#000000" />
<path d="M498.5274725274725,338.8421052631579 L498.5274725274725,348.8421052631579" stroke="#000000" />
<path d="M498.5274725274725,353.52631578947364 L498.5274725274725,363.52631578947364" stroke="#000000" />
<path d="M498.5274725274725,368.2105263157895 L498.5274725274725,378.2105263157895" stroke="#000000" />
<path d="M498.5274725274725,382.89473684210526 L498.5274725274725,392.89473684210526" stroke="#000000" />
<path d="M498.5274725274725,397.57894736842104 L498.5274725274725,407.57894736842104" stroke="#000000" />
<path d="M498.5274725274725,412.2631578947369 L498.5274725274725,422.2631578947369" stroke="#000000" />
<path d="M498.5274725274725,426.9473684210526 L498.5274725274725,436.9473684210526" stroke="#000000" />
<path d="M498.5274725274725,441.63157894736844 L498.5274725274725,451.63157894736844" stroke="#000000" />
<path d="M498.5274725274725,456.3157894736842 L498.5274725274725,466.3157894736842" stroke="#000000" />
<path d="M498.5274725274725,471.0 L498.5274725274725,481.0" stroke="#000000" />
<text x="325.0" y="529" font-size="12" text-anchor="start" dominant-baseline="middle" font-family="Arial" stroke="#000000">Generated by Roadmapper</text>
</svg>