<?xml version="1.0" encoding="UTF-8"?>
<svg xmlns="http://www.w3.org/2000/svg" xmlns:xlink="http://www.w3.org/1999/xlink"
     width="800" height="557" viewBox="0 0 800 557">
<defs>
</defs>
<rect x="0" y="0" width="800" height="700" fill="#FFFFFF" />
<text x="262.0" y="30" font-size="26" text-anchor="start" dominant-baseline="middle" font-family="Arial" stroke="#000000">Strategy Roadmap 2023</text>
<text x="297.5" y="64" font-size="18" text-anchor="start" dominant-baseline="middle" font-family="Arial" stroke="#000000">Matariki Technologies Ltd</text>
<rect x="198.0" y="125" width="574.5" height="20" fill="#4C5B5C" />
<text x="456.75" y="129.5" font-size="12" stroke="#FFFFFF" text-anchor="start" dominant-baseline="hanging" font-family="Arial">Year 2023</text>
<rect x="198.0" y="148" width="142.5" height="20" fill="#4C5B5C" />
<text x="261.25" y="152.0" font-size="12" stroke="#FFFFFF" text-anchor="start" dominant-baseline="hanging" font-family="Arial">Q1</text>
<rect x="342.0" y="148" width="142.5" height="20" fill="#4C5B5C" />
<text x="405.25" y="152.0" font-size="12" stroke="#FFFFFF" text-anchor="start" dominant-baseline="hanging" font-family="Arial">Q2</text>
<rect x="486.0" y="148" width="142.5" height="20" fill="#4C5B5C" />
<text x="549.25" y="152.0" font-size="12" stroke="#FFFFFF" text-anchor="start" dominant-baseline="hanging" font-family="Arial">Q3</text>
<rect x="630.0" y="148" width="142.5" height="20" fill="#4C5B5C" />
<text x="693.25" y="152.0" font-size="12" stroke="#FFFFFF" text-anchor="start" dominant-baseline="hanging" font-family="Arial">Q4</text>
<path d="M341.0,168 L341.0,456" stroke="#e6e6e6" stroke-opacity="50" stroke-width="1" />
<path d="M485.0,168 L485.0,456" stroke="#e6e6e6" stroke-opacity="50" stroke-width="1" />
<path d="M629.0,168 L629.0,456" stroke="#e6e6e6" stroke-opacity="50" stroke-width="1" />
<rect x="30" y="203" width="148.0" height="52" fill="#FCA311" />
<text x="63.5" y="222.5" font-size="12" stroke="#FFFFFF" text-anchor="start" dominant-baseline="hanging" font-family="Arial">People Stream</text>
<rect x="198" y="203" width="189" height="20" fill="#8FBC94" />
<text x="219.5" y="206.5" font-size="12" stroke="#000000" text-anchor="start" dominant-baseline="hanging" font-family="Arial">Develop Inclusion Strategy</text>
<rect x="389" y="203" width="381" height="20" fill="#8FBC94" />
<text x="473.5" y="206.5" font-size="12" stroke="#000000" text-anchor="start" dominant-baseline="hanging" font-family="Arial">Promote diversity, equity, and inclusion</text>
<rect x="292" y="228" width="431" height="20" fill="#8FBC94" />
<text x="404.0" y="231.5" font-size="12" stroke="#000000" text-anchor="start" dominant-baseline="hanging" font-family="Arial">Implement a sustainability programme</text>
<rect x="30" y="270" width="148.0" height="67" fill="#FCA311" />
<text x="61.0" y="298.0" font-size="12" stroke="#FFFFFF" text-anchor="start" dominant-baseline="hanging" font-family="Arial">Process Stream</text>
<rect x="247" y="270" width="475" height="20" fill="#8FBC94" />
<text x="359.0" y="273.5" font-size="12" stroke="#000000" text-anchor="start" dominant-baseline="hanging" font-family="Arial">Implement Business Improvement Programme</text>
<rect x="486" y="310" width="284" height="20" fill="#8FBC94" />
<text x="572.5" y="313.5" font-size="12" stroke="#000000" text-anchor="start" dominant-baseline="hanging" font-family="Arial">Automate processes</text>
<path d="M536.5439560439561,307 L549.5439560439561,320.0 L536.5439560439561,333 L523.5439560439561,320.0" fill="#3D6642" />
<text x="504.5439560439561" y="292" font-size="12" text-anchor="start" dominant-baseline="middle" font-family="Arial" stroke="#000000">30% Automated </text>
<path d="M727.521978021978,307 L740.521978021978,320.0 L727.521978021978,333 L714.521978021978,320.0" fill="#3D6642" />
<text x="695.521978021978" y="292" font-size="12" text-anchor="start" dominant-baseline="middle" font-family="Arial" stroke="#000000">60% Automated </text>
<rect x="30" y="352" width="148.0" height="94" fill="#FCA311" />
<text x="71.0" y="393.5" font-size="12" stroke="#FFFFFF" text-anchor="start" dominant-baseline="hanging" font-family="Arial">Tool Stream</text>
<rect x="198" y="352" width="189" height="20" fill="#8FBC94" />
<text x="241.0" y="355.5" font-size="12" stroke="#000000" text-anchor="start" dominant-baseline="hanging" font-family="Arial">Implement strategy</text>
<rect x="247" y="377" width="331" height="20" fill="#8FBC94" />
<text x="370.5" y="381.5" font-size="12" stroke="#000000" text-anchor="start" dominant-baseline="hanging" font-family="Arial">Tools Selection</text>
<rect x="342" y="417" width="381" height="20" fill="#8FBC94" />
<text x="447.0" y="421.5" font-size="12" stroke="#000000" text-anchor="start" dominant-baseline="hanging" font-family="Arial">Centralized Tool Administration</text>
<path d="M727.521978021978,414 L740.521978021978,427.0 L727.521978021978,440 L714.521978021978,427.0" fill="#3D6642" />
<text x="691.8553113553114" y="399" font-size="12" text-anchor="start" dominant-baseline="middle" font-family="Arial" stroke="#000000">Admin Centralised</text>
<text x="646.9230769230769" y="181" font-size="12" text-anchor="start" dominant-baseline="middle" font-family="Arial" stroke="#000000">▼</text>
<path d="M651.9230769230769,192.0 L651.9230769230769,202.0" stroke="#000000" stroke-opacity="0.9" stroke-width="2" />
<path d="M651.9230769230769,206.66666666666666 L651.9230769230769,216.66666666666666" stroke="#000000" stroke-opacity="0.9" stroke-width="2" />
<path d="M651.9230769230769,221.33333333333334 L651.9230769230769,231.33333333333334" stroke="#000000" stroke-opacity="0.9" stroke-width="2" />
<path d="M651.9230769230769,236.0 L651.9230769230769,246.0" stroke="#000000" stroke-opacity="0.9" stroke-width="2" />
<path d="M651.9230769230769,250.66666666666666 L651.9230769230769,260.66666666666663" stroke="#000000" stroke-opacity="0.9" stroke-width="2" />
<path d="M651.9230769230769,265.3333333333333 L651.9230769230769,275.3333333333333" stroke="#000000" stroke-opacity="0.9" stroke-width="2" />
<path d="M651.9230769230769,280.0 L651.9230769230769,290.0" stroke="#000000" stroke-opacity="0.9" stroke-width="2" />
<path d="M651.9230769230769,294.66666666666663 L651.9230769230769,304.66666666666663" stroke="#000000" stroke-opacity="0.9" stroke-width="2" />
<path d="M651.9230769230769,309.3333333333333 L651.9230769230769,319.3333333333333" stroke="#000000" stroke-opacity="0.9" stroke-width="2" />
<path d="M651.9230769230769,324.0 L651.9230769230769,334.0" stroke="#000000" stroke-opacity="0.9" stroke-width="2" />
<path d="M651.9230769230769,338.66666666666663 L651.9230769230769,348.66666666666663" stroke="#000000" stroke-opacity="0.9" stroke-width="2" />
<path d="M651.9230769230769,353.3333333333333 L651.9230769230769,363.3333333333333" stroke="#000000" stroke-opacity="0.9" stroke-width="2" />
<path d="M651.9230769230769,368.0 L651.9230769230769,378.0" stroke="#000000" stroke-opacity="0.9" stroke-width="2" />
<path d="M651.9230769230769,382.66666666666663 L651.9230769230769,392.66666666666663" stroke="#000000" stroke-opacity="0.9" stroke-width="2" />
<path d="M651.9230769230769,397.3333333333333 L651.9230769230769,407.3333333333333" stroke="#000000" stroke-opacity="0.9" stroke-width="2" />
<path d="M651.9230769230769,412.0 L651.9230769230769,422.0" stroke="#000000" stroke-opacity="0.9" stroke-width="2" />
<path d="M651.9230769230769,426.66666666666663 L651.9230769230769,436.66666666666663" stroke="#000000" stroke-opacity="0.9" stroke-width="2" />
<path d="M651.9230769230769,441.3333333333333 L651.9230769230769,451.3333333333333" stroke="#000000" stroke-opacity="0.9" stroke-width="2" />
<path d="M651.9230769230769,456.0 L651.9230769230769,466.0" stroke="#000000" stroke-opacity="0.9" stroke-width="2" />
<text x="325.0" y="514" font-size="12" text-anchor="start" dominant-baseline="middle" font-family="Arial" stroke="#000000">Generated by Roadmapper</text>
</svg>