<?xml version="1.0" encoding="UTF-8"?>
<svg xmlns="http://www.w3.org/2000/svg" xmlns:xlink="http://www.w3.org/1999/xlink"
     width="800" height="648" viewBox="0 0 800 648">
<defs>
</defs>
<rect x="0" y="0" width="800" height="700" fill="#FFFFFF" />
<text x="250.5" y="30" font-size="26" text-anchor="start" dominant-baseline="middle" font-family="../fonts/SourceHanSerifTC-Regular.otf" stroke="#000000">戦略的ロードマップ 2023</text>
<text x="247.0" y="68" font-size="18" text-anchor="start" dominant-baseline="middle" font-family="../fonts/SourceHanSerifTC-Regular.otf" stroke="#000000">マタリッチサンテクノロジー株式会社</text>
<rect x="198.0" y="132" width="574.5" height="20" fill="#4C5B5C" />
<text x="460.25" y="132.5" font-size="14" stroke="#FFFFFF" text-anchor="start" dominant-baseline="hanging" font-family="../fonts/SourceHanSerifTC-Regular.otf">2023 年</text>
<rect x="198.0" y="155" width="142.5" height="20" fill="#4C5B5C" />
<text x="240.75" y="157.5" font-size="12" stroke="#FFFFFF" text-anchor="start" dominant-baseline="hanging" font-family="../fonts/SourceHanSerifTC-Regular.otf">第1 四半期</text>
<rect x="342.0" y="155" width="142.5" height="20" fill="#4C5B5C" />
<text x="384.25" y="157.5" font-size="12" stroke="#FFFFFF" text-anchor="start" dominant-baseline="hanging" font-family="../fonts/SourceHanSerifTC-Regular.otf">第2 四半期</text>
<rect x="486.0" y="155" width="142.5" height="20" fill="#4C5B5C" />
<text x="528.25" y="157.5" font-size="12" stroke="#FFFFFF" text-anchor="start" dominant-baseline="hanging" font-family="../fonts/SourceHanSerifTC-Regular.otf">第3 四半期</text>
<rect x="630.0" y="155" width="142.5" height="20" fill="#4C5B5C" />
<text x="672.25" y="157.5" font-size="12" stroke="#FFFFFF" text-anchor="start" dominant-baseline="hanging" font-family="../fonts/SourceHanSerifTC-Regular.otf">第4 四半期</text>
<path d="M341.0,175 L341.0,541" width="1" fill="(230, 230, 230, 12750)" />
<path d="M485.0,175 L485.0,541" width="1" fill="(230, 230, 230, 12750)" />
<path d="M629.0,175 L629.0,541" width="1" fill="(230, 230, 230, 12750)" />
<rect x="30" y="213" width="148.0" height="82" fill="#FCA311" />
<text x="62.0" y="244.5" font-size="14" stroke="#FFFFFF" text-anchor="start" dominant-baseline="hanging" font-family="../fonts/SourceHanSerifTC-Bold.otf">人事プロセス</text>
<rect x="198" y="213" width="187" height="20" fill="#8FBC94" />
<text x="201.5" y="215.0" font-size="12" stroke="#000000" text-anchor="start" dominant-baseline="hanging" font-family="../fonts/SourceHanSerifTC-Regular.otf">インクルージョン戦略を策定する</text>
<rect x="389" y="213" width="377" height="20" fill="#8FBC94" />
<text x="493.5" y="215.0" font-size="12" stroke="#000000" text-anchor="start" dominant-baseline="hanging" font-family="../fonts/SourceHanSerifTC-Regular.otf">多様性、公平性、包括性の促進</text>
<rect x="292" y="238" width="425" height="20" fill="#8FBC94" />
<text x="432.5" y="240.0" font-size="12" stroke="#000000" text-anchor="start" dominant-baseline="hanging" font-family="../fonts/SourceHanSerifTC-Regular.otf">持続可能な開発計画の実施</text>
<rect x="30" y="310" width="148.0" height="82" fill="#FCA311" />
<text x="76.0" y="341.0" font-size="14" stroke="#FFFFFF" text-anchor="start" dominant-baseline="hanging" font-family="../fonts/SourceHanSerifTC-Bold.otf">作業過程</text>
<rect x="247" y="310" width="469" height="20" fill="#8FBC94" />
<text x="427.5" y="312.0" font-size="12" stroke="#000000" text-anchor="start" dominant-baseline="hanging" font-family="../fonts/SourceHanSerifTC-Regular.otf">業務改善計画の実施</text>
<rect x="486" y="350" width="282" height="20" fill="#8FBC94" />
<text x="567.0" y="352.0" font-size="12" stroke="#000000" text-anchor="start" dominant-baseline="hanging" font-family="../fonts/SourceHanSerifTC-Regular.otf">自動化されたプロセス</text>
<path d="M536.5439560439561,347 L549.5439560439561,360.0 L536.5439560439561,373 L523.5439560439561,360.0" fill="#3D6642" />
<text x="514.2106227106227" y="332" font-size="12" text-anchor="start" dominant-baseline="middle" font-family="../fonts/SourceHanSerifTC-Regular.otf" stroke="#000000">30%自動化</text>
<path d="M727.521978021978,347 L740.521978021978,360.0 L727.521978021978,373 L714.521978021978,360.0" fill="#3D6642" />
<text x="705.1886446886447" y="332" font-size="12" text-anchor="start" dominant-baseline="middle" font-family="../fonts/SourceHanSerifTC-Regular.otf" stroke="#000000">60%自動化</text>
<rect x="30" y="407" width="148.0" height="124" fill="#FCA311" />
<text x="62.0" y="459.5" font-size="14" stroke="#FFFFFF" text-anchor="start" dominant-baseline="hanging" font-family="../fonts/SourceHanSerifTC-Bold.otf">ツールフロー</text>
<rect x="198" y="407" width="187" height="20" fill="#8FBC94" />
<text x="219.5" y="409.0" font-size="12" stroke="#000000" text-anchor="start" dominant-baseline="hanging" font-family="../fonts/SourceHanSerifTC-Regular.otf">ツール選択戦略を実装する</text>
<rect x="247" y="432" width="327" height="20" fill="#8FBC94" />
<text x="374.5" y="434.0" font-size="12" stroke="#000000" text-anchor="start" dominant-baseline="hanging" font-family="../fonts/SourceHanSerifTC-Regular.otf">ツールの選択</text>
<rect x="342" y="472" width="377" height="20" fill="#8FBC94" />
<text x="488.5" y="474.0" font-size="12" stroke="#000000" text-anchor="start" dominant-baseline="hanging" font-family="../fonts/SourceHanSerifTC-Regular.otf">集中ツール管理</text>
<path d="M727.521978021978,469 L740.521978021978,482.0 L727.521978021978,495 L714.521978021978,482.0" fill="#3D6642" />
<text x="693.521978021978" y="454" font-size="12" text-anchor="start" dominant-baseline="middle" font-family="../fonts/SourceHanSerifTC-Regular.otf" stroke="#000000">システムは集中型</text>
<text x="582.7857142857143" y="188" font-size="12" text-anchor="start" dominant-baseline="middle" font-family="../fonts/SourceHanSerifTC-Regular.otf" stroke="#000000">▼</text>
<path d="M587.7857142857143,202.0 L587.7857142857143,212.0" stroke="#000000" />
<path d="M587.7857142857143,216.4255319148936 L587.7857142857143,226.4255319148936" stroke="#000000" />
<path d="M587.7857142857143,230.85106382978722 L587.7857142857143,240.85106382978722" stroke="#000000" />
<path d="M587.7857142857143,245.27659574468083 L587.7857142857143,255.27659574468083" stroke="#000000" />
<path d="M587.7857142857143,259.70212765957444 L587.7857142857143,269.70212765957444" stroke="#000000" />
<path d="M587.7857142857143,274.1276595744681 L587.7857142857143,284.1276595744681" stroke="#000000" />
<path d="M587.7857142857143,288.55319148936167 L587.7857142857143,298.55319148936167" stroke="#000000" />
<path d="M587.7857142857143,302.97872340425533 L587.7857142857143,312.97872340425533" stroke="#000000" />
<path d="M587.7857142857143,317.40425531914894 L587.7857142857143,327.40425531914894" stroke="#000000" />
<path d="M587.7857142857143,331.82978723404256 L587.7857142857143,341.82978723404256" stroke="#000000" />
<path d="M587.7857142857143,346.25531914893617 L587.7857142857143,356.25531914893617" stroke="#000000" />
<path d="M587.7857142857143,360.6808510638298 L587.7857142857143,370.6808510638298" stroke="#000000" />
<path d="M587.7857142857143,375.1063829787234 L587.7857142857143,385.1063829787234" stroke="#000000" />
<path d="M587.7857142857143,389.531914893617 L587.7857142857143,399.531914893617" stroke="#000000" />
<path d="M587.7857142857143,403.95744680851067 L587.7857142857143,413.95744680851067" stroke="#000000" />
<path d="M587.7857142857143,418.3829787234042 L587.7857142857143,428.3829787234042" stroke="#000000" />
<path d="M587.7857142857143,432.8085106382979 L587.7857142857143,442.8085106382979" stroke="#000000" />
<path d="M587.7857142857143,447.23404255319144 L587.7857142857143,457.23404255319144" stroke="#000000" />
<path d="M587.7857142857143,461.6595744680851 L587.7857142857143,471.6595744680851" stroke="#000000" />
<path d="M587.7857142857143,476.0851063829787 L587.7857142857143,486.0851063829787" stroke="#000000" />
<path d="M587.7857142857143,490.51063829787233 L587.7857142857143,500.51063829787233" stroke="#000000" />
<path d="M587.7857142857143,504.93617021276594 L587.7857142857143,514.936170212766" stroke="#000000" />
<path d="M587.7857142857143,519.3617021276596 L587.7857142857143,529.3617021276596" stroke="#000000" />
<path d="M587.7857142857143,533.7872340425531 L587.7857142857143,543.7872340425531" stroke="#000000" />
<text x="322.0" y="602" font-size="12" text-anchor="start" dominant-baseline="middle" font-family="../fonts/SourceHanSerifTC-Regular.otf" stroke="#000000">ロードマッパーによって生成</text>
</svg>