<?xml version="1.0" encoding="UTF-8"?>
<svg xmlns="http://www.w3.org/2000/svg" xmlns:xlink="http://www.w3.org/1999/xlink"
     width="800" height="573" viewBox="0 0 800 573">
<defs>
</defs>
<rect x="0" y="0" width="800" height="700" fill="#FFFFFF" />
<text x="250.5" y="30" font-size="26" text-anchor="start" dominant-baseline="middle" font-family="../fonts/SourceHanSerifTC-Regular.otf" stroke="#000000">戦略的ロードマップ 2023</text>
<text x="247.0" y="68" font-size="18" text-anchor="start" dominant-baseline="middle" font-family="../fonts/SourceHanSerifTC-Regular.otf" stroke="#000000">マタリッチサンテクノロジー株式会社</text>
<rect x="198.0" y="132" width="574.5" height="20" fill="#4C5B5C" />
<text x="460.25" y="132.5" font-size="14" stroke="#FFFFFF" text-anchor="start" dominant-baseline="hanging" font-family="../fonts/SourceHanSerifTC-Regular.otf">2023 年</text>
<rect x="198.0" y="155" width="142.5" height="20" fill="#4C5B5C" />
<text x="240.75" y="157.5" font-size="12" stroke="#FFFFFF" text-anchor="start" dominant-baseline="hanging" font-family="../fonts/SourceHanSerifTC-Regular.otf">第1 四半期</text>
<rect x="342.0" y="155" width="142.5" height="20" fill="#4C5B5C" />
<text x="384.25" y="157.5" font-size="12" stroke="#FFFFFF" text-anchor="start" dominant-baseline="hanging" font-family="../fonts/SourceHanSerifTC-Regular.otf">第2 四半期</text>
<rect x="486.0" y="155" width="142.5" height="20" fill="#4C5B5C" />
<text x="528.25" y="157.5" font-size="12" stroke="#FFFFFF" text-anchor="start" dominant-baseline="hanging" font-family="../fonts/SourceHanSerifTC-Regular.otf">第3 四半期</text>
<rect x="630.0" y="155" width="142.5" height="20" fill="#4C5B5C" />
<text x="672.25" y="157.5" font-size="12" stroke="#FFFFFF" text-anchor="start" dominant-baseline="hanging" font-family="../fonts/SourceHanSerifTC-Regular.otf">第4 四半期</text>
<path d="M341.0,175 L341.0,466" stroke="#e6e6e6" stroke-opacity="50" stroke-width="1" />
<path d="M485.0,175 L485.0,466" stroke="#e6e6e6" stroke-opacity="50" stroke-width="1" />
<path d="M629.0,175 L629.0,466" stroke="#e6e6e6" stroke-opacity="50" stroke-width="1" />
<rect x="30" y="213" width="148.0" height="52" fill="#FCA311" />
<text x="62.0" y="229.5" font-size="14" stroke="#FFFFFF" text-anchor="start" dominant-baseline="hanging" font-family="../fonts/SourceHanSerifTC-Bold.otf">人事プロセス</text>
<rect x="198" y="213" width="189" height="20" fill="#8FBC94" />
<text x="202.5" y="215.0" font-size="12" stroke="#000000" text-anchor="start" dominant-baseline="hanging" font-family="../fonts/SourceHanSerifTC-Regular.otf">インクルージョン戦略を策定する</text>
<rect x="389" y="213" width="381" height="20" fill="#8FBC94" />
<text x="495.5" y="215.0" font-size="12" stroke="#000000" text-anchor="start" dominant-baseline="hanging" font-family="../fonts/SourceHanSerifTC-Regular.otf">多様性、公平性、包括性の促進</text>
<rect x="292" y="238" width="431" height="20" fill="#8FBC94" />
<text x="435.5" y="240.0" font-size="12" stroke="#000000" text-anchor="start" dominant-baseline="hanging" font-family="../fonts/SourceHanSerifTC-Regular.otf">持続可能な開発計画の実施</text>
<rect x="30" y="280" width="148.0" height="67" fill="#FCA311" />
<text x="76.0" y="303.5" font-size="14" stroke="#FFFFFF" text-anchor="start" dominant-baseline="hanging" font-family="../fonts/SourceHanSerifTC-Bold.otf">作業過程</text>
<rect x="247" y="280" width="475" height="20" fill="#8FBC94" />
<text x="430.5" y="282.0" font-size="12" stroke="#000000" text-anchor="start" dominant-baseline="hanging" font-family="../fonts/SourceHanSerifTC-Regular.otf">業務改善計画の実施</text>
<rect x="486" y="320" width="284" height="20" fill="#8FBC94" />
<text x="568.0" y="322.0" font-size="12" stroke="#000000" text-anchor="start" dominant-baseline="hanging" font-family="../fonts/SourceHanSerifTC-Regular.otf">自動化されたプロセス</text>
<path d="M536.5439560439561,317 L549.5439560439561,330.0 L536.5439560439561,343 L523.5439560439561,330.0" fill="#3D6642" />
<text x="514.2106227106227" y="302" font-size="12" text-anchor="start" dominant-baseline="middle" font-family="../fonts/SourceHanSerifTC-Regular.otf" stroke="#000000">30%自動化</text>
<path d="M727.521978021978,317 L740.521978021978,330.0 L727.521978021978,343 L714.521978021978,330.0" fill="#3D6642" />
<text x="705.1886446886447" y="302" font-size="12" text-anchor="start" dominant-baseline="middle" font-family="../fonts/SourceHanSerifTC-Regular.otf" stroke="#000000">60%自動化</text>
<rect x="30" y="362" width="148.0" height="94" fill="#FCA311" />
<text x="62.0" y="399.5" font-size="14" stroke="#FFFFFF" text-anchor="start" dominant-baseline="hanging" font-family="../fonts/SourceHanSerifTC-Bold.otf">ツールフロー</text>
<rect x="198" y="362" width="189" height="20" fill="#8FBC94" />
<text x="220.5" y="364.0" font-size="12" stroke="#000000" text-anchor="start" dominant-baseline="hanging" font-family="../fonts/SourceHanSerifTC-Regular.otf">ツール選択戦略を実装する</text>
<rect x="247" y="387" width="331" height="20" fill="#8FBC94" />
<text x="376.5" y="389.0" font-size="12" stroke="#000000" text-anchor="start" dominant-baseline="hanging" font-family="../fonts/SourceHanSerifTC-Regular.otf">ツールの選択</text>
<rect x="342" y="427" width="381" height="20" fill="#8FBC94" />
<text x="490.5" y="429.0" font-size="12" stroke="#000000" text-anchor="start" dominant-baseline="hanging" font-family="../fonts/SourceHanSerifTC-Regular.otf">集中ツール管理</text>
<path d="M727.521978021978,424 L740.521978021978,437.0 L727.521978021978,450 L714.521978021978,437.0" fill="#3D6642" />
<text x="693.521978021978" y="409" font-size="12" text-anchor="start" dominant-baseline="middle" font-family="../fonts/SourceHanSerifTC-Regular.otf" stroke="#000000">システムは集中型</text>
<text x="703.2967032967033" y="188" font-size="12" text-anchor="start" dominant-baseline="middle" font-family="../fonts/SourceHanSerifTC-Regular.otf" stroke="#000000">▼</text>
<path d="M708.2967032967033,202.0 L708.2967032967033,212.0" stroke="#000000" stroke-opacity="0.9" stroke-width="2" />
<path d="M708.2967032967033,216.66666666666666 L708.2967032967033,226.66666666666666" stroke="#000000" stroke-opacity="0.9" stroke-width="2" />
<path d="M708.2967032967033,231.33333333333334 L708.2967032967033,241.33333333333334" stroke="#000000" stroke-opacity="0.9" stroke-width="2" />
<path d="M708.2967032967033,246.0 L708.2967032967033,256.0" stroke="#000000" stroke-opacity="0.9" stroke-width="2" />
<path d="M708.2967032967033,260.6666666666667 L708.2967032967033,270.6666666666667" stroke="#000000" stroke-opacity="0.9" stroke-width="2" />
<path d="M708.2967032967033,275.3333333333333 L708.2967032967033,285.3333333333333" stroke="#000000" stroke-opacity="0.9" stroke-width="2" />
<path d="M708.2967032967033,290.0 L708.2967032967033,300.0" stroke="#000000" stroke-opacity="0.9" stroke-width="2" />
<path d="M708.2967032967033,304.66666666666663 L708.2967032967033,314.66666666666663" stroke="#000000" stroke-opacity="0.9" stroke-width="2" />
<path d="M708.2967032967033,319.3333333333333 L708.2967032967033,329.3333333333333" stroke="#000000" stroke-opacity="0.9" stroke-width="2" />
<path d="M708.2967032967033,334.0 L708.2967032967033,344.0" stroke="#000000" stroke-opacity="0.9" stroke-width="2" />
<path d="M708.2967032967033,348.66666666666663 L708.2967032967033,358.66666666666663" stroke="#000000" stroke-opacity="0.9" stroke-width="2" />
<path d="M708.2967032967033,363.3333333333333 L708.2967032967033,373.3333333333333" stroke="#000000" stroke-opacity="0.9" stroke-width="2" />
<path d="M708.2967032967033,378.0 L708.2967032967033,388.0" stroke="#000000" stroke-opacity="0.9" stroke-width="2" />
<path d="M708.2967032967033,392.66666666666663 L708.2967032967033,402.66666666666663" stroke="#000000" stroke-opacity="0.9" stroke-width="2" />
<path d="M708.2967032967033,407.3333333333333 L708.2967032967033,417.3333333333333" stroke="#000000" stroke-opacity="0.9" stroke-width="2" />
<path d="M708.2967032967033,422.0 L708.2967032967033,432.0" stroke="#000000" stroke-opacity="0.9" stroke-width="2" />
<path d="M708.2967032967033,436.66666666666663 L708.2967032967033,446.66666666666663" stroke="#000000" stroke-opacity="0.9" stroke-width="2" />
<path d="M708.2967032967033,451.3333333333333 L708.2967032967033,461.3333333333333" stroke="#000000" stroke-opacity="0.9" stroke-width="2" />
<path d="M708.2967032967033,466.0 L708.2967032967033,476.0" stroke="#000000" stroke-opacity="0.9" stroke-width="2" />
<text x="322.0" y="527" font-size="12" text-anchor="start" dominant-baseline="middle" font-family="../fonts/SourceHanSerifTC-Regular.otf" stroke="#000000">ロードマッパーによって生成</text>
</svg>