<?xml version="1.0" encoding="UTF-8"?>
<svg xmlns="http://www.w3.org/2000/svg" xmlns:xlink="http://www.w3.org/1999/xlink"
     width="800" height="649" viewBox="0 0 800 649">
<defs>
</defs>
<rect x="0" y="0" width="800" height="700" fill="#FFFFFF" />
<text x="301.5" y="30" font-size="26" text-anchor="start" dominant-baseline="middle" font-family="../fonts/SourceHanSerifTC-Regular.otf" stroke="#000000">전략 로드맵 2023</text>
<text x="312.5" y="69" font-size="18" text-anchor="start" dominant-baseline="middle" font-family="../fonts/SourceHanSerifTC-Regular.otf" stroke="#000000">마타리키 테크놀로지스</text>
<rect x="198.0" y="133" width="574.5" height="20" fill="#4C5B5C" />
<text x="460.25" y="133.5" font-size="14" stroke="#FFFFFF" text-anchor="start" dominant-baseline="hanging" font-family="../fonts/SourceHanSerifTC-Regular.otf">2023 년</text>
<rect x="198.0" y="156" width="142.5" height="20" fill="#4C5B5C" />
<text x="246.75" y="158.0" font-size="12" stroke="#FFFFFF" text-anchor="start" dominant-baseline="hanging" font-family="../fonts/SourceHanSerifTC-Regular.otf">第1 분기</text>
<rect x="342.0" y="156" width="142.5" height="20" fill="#4C5B5C" />
<text x="390.25" y="158.0" font-size="12" stroke="#FFFFFF" text-anchor="start" dominant-baseline="hanging" font-family="../fonts/SourceHanSerifTC-Regular.otf">第2 분기</text>
<rect x="486.0" y="156" width="142.5" height="20" fill="#4C5B5C" />
<text x="534.25" y="158.0" font-size="12" stroke="#FFFFFF" text-anchor="start" dominant-baseline="hanging" font-family="../fonts/SourceHanSerifTC-Regular.otf">第3 분기</text>
<rect x="630.0" y="156" width="142.5" height="20" fill="#4C5B5C" />
<text x="678.25" y="158.0" font-size="12" stroke="#FFFFFF" text-anchor="start" dominant-baseline="hanging" font-family="../fonts/SourceHanSerifTC-Regular.otf">第4 분기</text>
<path d="M341.0,176 L341.0,542" width="1" fill="(230, 230, 230, 12750)" />
<path d="M485.0,176 L485.0,542" width="1" fill="(230, 230, 230, 12750)" />
<path d="M629.0,176 L629.0,542" width="1" fill="(230, 230, 230, 12750)" />
<rect x="30" y="214" width="148.0" height="82" fill="#FCA311" />
<text x="60.0" y="245.0" font-size="14" stroke="#FFFFFF" text-anchor="start" dominant-baseline="hanging" font-family="../fonts/SourceHanSerifTC-Bold.otf">인사 프로세스</text>
<rect x="198" y="214" width="187" height="20" fill="#8FBC94" />
<text x="246.5" y="216.0" font-size="12" stroke="#000000" text-anchor="start" dominant-baseline="hanging" font-family="../fonts/SourceHanSerifTC-Regular.otf">포함 전략을 수립</text>
<rect x="389" y="214" width="377" height="20" fill="#8FBC94" />
<text x="503.0" y="216.0" font-size="12" stroke="#000000" text-anchor="start" dominant-baseline="hanging" font-family="../fonts/SourceHanSerifTC-Regular.otf">다양성, 공정성, 포괄성 촉진</text>
<rect x="292" y="239" width="425" height="20" fill="#8FBC94" />
<text x="432.5" y="241.0" font-size="12" stroke="#000000" text-anchor="start" dominant-baseline="hanging" font-family="../fonts/SourceHanSerifTC-Regular.otf">지속 가능한 개발 계획 실시</text>
<rect x="30" y="311" width="148.0" height="82" fill="#FCA311" />
<text x="74.0" y="342.0" font-size="14" stroke="#FFFFFF" text-anchor="start" dominant-baseline="hanging" font-family="../fonts/SourceHanSerifTC-Bold.otf">작업 과정</text>
<rect x="247" y="311" width="469" height="20" fill="#8FBC94" />
<text x="429.0" y="313.0" font-size="12" stroke="#000000" text-anchor="start" dominant-baseline="hanging" font-family="../fonts/SourceHanSerifTC-Regular.otf">업무 개선 계획 실시</text>
<rect x="486" y="351" width="282" height="20" fill="#8FBC94" />
<text x="577.5" y="353.0" font-size="12" stroke="#000000" text-anchor="start" dominant-baseline="hanging" font-family="../fonts/SourceHanSerifTC-Regular.otf">자동화된 프로세스</text>
<path d="M536.5439560439561,348 L549.5439560439561,361.0 L536.5439560439561,374 L523.5439560439561,361.0" fill="#3D6642" />
<text x="513.2106227106227" y="333" font-size="12" text-anchor="start" dominant-baseline="middle" font-family="../fonts/SourceHanSerifTC-Regular.otf" stroke="#000000">30% 자동화</text>
<path d="M727.521978021978,348 L740.521978021978,361.0 L727.521978021978,374 L714.521978021978,361.0" fill="#3D6642" />
<text x="704.1886446886447" y="333" font-size="12" text-anchor="start" dominant-baseline="middle" font-family="../fonts/SourceHanSerifTC-Regular.otf" stroke="#000000">60% 자동화</text>
<rect x="30" y="408" width="148.0" height="124" fill="#FCA311" />
<text x="74.0" y="460.0" font-size="14" stroke="#FFFFFF" text-anchor="start" dominant-baseline="hanging" font-family="../fonts/SourceHanSerifTC-Bold.otf">공구 흐름</text>
<rect x="198" y="408" width="187" height="20" fill="#8FBC94" />
<text x="239.0" y="410.0" font-size="12" stroke="#000000" text-anchor="start" dominant-baseline="hanging" font-family="../fonts/SourceHanSerifTC-Regular.otf">도구 선택 전략 구현</text>
<rect x="247" y="433" width="327" height="20" fill="#8FBC94" />
<text x="385.0" y="435.0" font-size="12" stroke="#000000" text-anchor="start" dominant-baseline="hanging" font-family="../fonts/SourceHanSerifTC-Regular.otf">도구 선택</text>
<rect x="342" y="473" width="377" height="20" fill="#8FBC94" />
<text x="472.0" y="475.0" font-size="12" stroke="#000000" text-anchor="start" dominant-baseline="hanging" font-family="../fonts/SourceHanSerifTC-Regular.otf">중앙 집중식 도구 관리</text>
<path d="M727.521978021978,470 L740.521978021978,483.0 L727.521978021978,496 L714.521978021978,483.0" fill="#3D6642" />
<text x="687.521978021978" y="455" font-size="12" text-anchor="start" dominant-baseline="middle" font-family="../fonts/SourceHanSerifTC-Regular.otf" stroke="#000000">시스템은 중앙 집중식</text>
<text x="582.7857142857143" y="189" font-size="12" text-anchor="start" dominant-baseline="middle" font-family="../fonts/SourceHanSerifTC-Regular.otf" stroke="#000000">▼</text>
<path d="M587.7857142857143,203.0 L587.7857142857143,213.0" stroke="#000000" />
<path d="M587.7857142857143,217.4255319148936 L587.7857142857143,227.4255319148936" stroke="#000000" />
<path d="M587.7857142857143,231.85106382978722 L587.7857142857143,241.85106382978722" stroke="#000000" />
<path d="M587.7857142857143,246.27659574468083 L587.7857142857143,256.27659574468083" stroke="#000000" />
<path d="M587.7857142857143,260.70212765957444 L587.7857142857143,270.70212765957444" stroke="#000000" />
<path d="M587.7857142857143,275.1276595744681 L587.7857142857143,285.1276595744681" stroke="#000000" />
<path d="M587.7857142857143,289.55319148936167 L587.7857142857143,299.55319148936167" stroke="#000000" />
<path d="M587.7857142857143,303.97872340425533 L587.7857142857143,313.97872340425533" stroke="#000000" />
<path d="M587.7857142857143,318.40425531914894 L587.7857142857143,328.40425531914894" stroke="#000000" />
<path d="M587.7857142857143,332.82978723404256 L587.7857142857143,342.82978723404256" stroke="#000000" />
<path d="M587.7857142857143,347.25531914893617 L587.7857142857143,357.25531914893617" stroke="#000000" />
<path d="M587.7857142857143,361.6808510638298 L587.7857142857143,371.6808510638298" stroke="#000000" />
<path d="M587.7857142857143,376.1063829787234 L587.7857142857143,386.1063829787234" stroke="#000000" />
<path d="M587.7857142857143,390.531914893617 L587.7857142857143,400.531914893617" stroke="#000000" />
<path d="M587.7857142857143,404.95744680851067 L587.7857142857143,414.95744680851067" stroke="#000000" />
<path d="M587.7857142857143,419.3829787234042 L587.7857142857143,429.3829787234042" stroke="#000000" />
<path d="M587.7857142857143,433.8085106382979 L587.7857142857143,443.8085106382979" stroke="#000000" />
<path d="M587.7857142857143,448.23404255319144 L587.7857142857143,458.23404255319144" stroke="#000000" />
<path d="M587.7857142857143,462.6595744680851 L587.7857142857143,472.6595744680851" stroke="#000000" />
<path d="M587.7857142857143,477.0851063829787 L587.7857142857143,487.0851063829787" stroke="#000000" />
<path d="M587.7857142857143,491.51063829787233 L587.7857142857143,501.51063829787233" stroke="#000000" />
<path d="M587.7857142857143,505.93617021276594 L587.7857142857143,515.936170212766" stroke="#000000" />
<path d="M587.7857142857143,520.3617021276596 L587.7857142857143,530.3617021276596" stroke="#000000" />
<path d="M587.7857142857143,534.7872340425531 L587.7857142857143,544.7872340425531" stroke="#000000" />
<text x="350.5" y="603" font-size="12" text-anchor="start" dominant-baseline="middle" font-family="../fonts/SourceHanSerifTC-Regular.otf" stroke="#000000">로드매퍼에서 생성</text>
</svg>