<?xml version="1.0" encoding="UTF-8"?>
<svg xmlns="http://www.w3.org/2000/svg" xmlns:xlink="http://www.w3.org/1999/xlink"
     width="500" height="371" viewBox="0 0 500 371">
<defs>
</defs>
<rect x="0" y="0" width="500" height="400" fill="#FFFFFF" />
<text x="173.5" y="30" font-size="26" text-anchor="start" dominant-baseline="middle" font-family="Arial" stroke="#000000">My Roadmap</text>
<rect x="138.0" y="99" width="110.5" height="20" fill="#000000" />
<text x="164.75" y="103.5" font-size="12" stroke="#FFFFFF" text-anchor="start" dominant-baseline="hanging" font-family="Arial">Year 2022</text>
<rect x="250.0" y="99" width="222.5" height="20" fill="#000000" />
<text x="332.75" y="103.5" font-size="12" stroke="#FFFFFF" text-anchor="start" dominant-baseline="hanging" font-family="Arial">Year 2023</text>
<rect x="138.0" y="122" width="54.5" height="20" fill="#000000" />
<text x="154.25" y="126.5" font-size="12" stroke="#FFFFFF" text-anchor="start" dominant-baseline="hanging" font-family="Arial">Nov</text>
<rect x="194.0" y="122" width="54.5" height="20" fill="#000000" />
<text x="210.25" y="126.5" font-size="12" stroke="#FFFFFF" text-anchor="start" dominant-baseline="hanging" font-family="Arial">Dec</text>
<rect x="250.0" y="122" width="54.5" height="20" fill="#000000" />
<text x="267.25" y="126.5" font-size="12" stroke="#FFFFFF" text-anchor="start" dominant-baseline="hanging" font-family="Arial">Jan</text>
<rect x="306.0" y="122" width="54.5" height="20" fill="#000000" />
<text x="322.75" y="126.5" font-size="12" stroke="#FFFFFF" text-anchor="start" dominant-baseline="hanging" font-family="Arial">Feb</text>
<rect x="362.0" y="122" width="54.5" height="20" fill="#000000" />
<text x="378.25" y="126.5" font-size="12" stroke="#FFFFFF" text-anchor="start" dominant-baseline="hanging" font-family="Arial">Mar</text>
<rect x="418.0" y="122" width="54.5" height="20" fill="#000000" />
<text x="435.25" y="125.5" font-size="12" stroke="#FFFFFF" text-anchor="start" dominant-baseline="hanging" font-family="Arial">Apr</text>
<path d="M193.0,142 L193.0,266" width="1" fill="(230, 230, 230, 12750)" />
<path d="M249.0,142 L249.0,266" width="1" fill="(230, 230, 230, 12750)" />
<path d="M305.0,142 L305.0,266" width="1" fill="(230, 230, 230, 12750)" />
<path d="M361.0,142 L361.0,266" width="1" fill="(230, 230, 230, 12750)" />
<path d="M417.0,142 L417.0,266" width="1" fill="(230, 230, 230, 12750)" />
<rect x="30" y="177" width="88.0" height="79" fill="#000000" />
<text x="37.0" y="210.0" font-size="12" stroke="#FFFFFF" text-anchor="start" dominant-baseline="hanging" font-family="Arial">Development</text>
<rect x="194" y="177" width="133" height="20" fill="#D9D9D9" />
<text x="236.5" y="180.5" font-size="12" stroke="#000000" text-anchor="start" dominant-baseline="hanging" font-family="Arial">Activity 1</text>
<rect x="271" y="202" width="122" height="20" fill="#D9D9D9" />
<text x="308.0" y="205.5" font-size="12" stroke="#000000" text-anchor="start" dominant-baseline="hanging" font-family="Arial">Activity 2</text>
<rect x="288" y="227" width="184" height="20" fill="#D9D9D9" />
<text x="356.0" y="230.5" font-size="12" stroke="#000000" text-anchor="start" dominant-baseline="hanging" font-family="Arial">Activity 3</text>
<text x="172.0" y="326" font-size="13" text-anchor="start" dominant-baseline="middle" font-family="Arial" stroke="#000000">Generated by Roadmapper</text>
</svg>