<?xml version="1.0" encoding="UTF-8"?>
<svg xmlns="http://www.w3.org/2000/svg" xmlns:xlink="http://www.w3.org/1999/xlink"
     width="1200" height="381" viewBox="0 0 1200 381">
<defs>
</defs>
<rect x="0" y="0" width="1200" height="380" fill="#FFFFFF" />
<text x="495.0" y="30" font-size="26" text-anchor="start" dominant-baseline="middle" font-family="Arial" stroke="#0B5394">Product Roadmap</text>
<text x="532.0" y="64" font-size="18" text-anchor="start" dominant-baseline="middle" font-family="Arial" stroke="#0B5394">Matariki Tech Ltd</text>
<rect x="278.0" y="121" width="889.5" height="20" fill="#0B5394" />
<text x="695.25" y="125.5" font-size="12" stroke="#FFFFFF" text-anchor="start" dominant-baseline="hanging" font-family="Arial">Year 2023</text>
<rect x="278.0" y="144" width="97.5" height="20" fill="#0B5394" />
<text x="317.25" y="148.5" font-size="12" stroke="#FFFFFF" text-anchor="start" dominant-baseline="hanging" font-family="Arial">Jan</text>
<rect x="377.0" y="144" width="97.5" height="20" fill="#0B5394" />
<text x="415.25" y="148.5" font-size="12" stroke="#FFFFFF" text-anchor="start" dominant-baseline="hanging" font-family="Arial">Feb</text>
<rect x="476.0" y="144" width="97.5" height="20" fill="#0B5394" />
<text x="513.75" y="148.5" font-size="12" stroke="#FFFFFF" text-anchor="start" dominant-baseline="hanging" font-family="Arial">Mar</text>
<rect x="575.0" y="144" width="97.5" height="20" fill="#0B5394" />
<text x="613.75" y="147.5" font-size="12" stroke="#FFFFFF" text-anchor="start" dominant-baseline="hanging" font-family="Arial">Apr</text>
<rect x="674.0" y="144" width="97.5" height="20" fill="#0B5394" />
<text x="711.25" y="147.5" font-size="12" stroke="#FFFFFF" text-anchor="start" dominant-baseline="hanging" font-family="Arial">May</text>
<rect x="773.0" y="144" width="97.5" height="20" fill="#0B5394" />
<text x="812.25" y="148.5" font-size="12" stroke="#FFFFFF" text-anchor="start" dominant-baseline="hanging" font-family="Arial">Jun</text>
<rect x="872.0" y="144" width="97.5" height="20" fill="#0B5394" />
<text x="913.25" y="148.5" font-size="12" stroke="#FFFFFF" text-anchor="start" dominant-baseline="hanging" font-family="Arial">Jul</text>
<rect x="971.0" y="144" width="97.5" height="20" fill="#0B5394" />
<text x="1009.25" y="147.5" font-size="12" stroke="#FFFFFF" text-anchor="start" dominant-baseline="hanging" font-family="Arial">Aug</text>
<rect x="1070.0" y="144" width="97.5" height="20" fill="#0B5394" />
<text x="1107.75" y="147.5" font-size="12" stroke="#FFFFFF" text-anchor="start" dominant-baseline="hanging" font-family="Arial">Sep</text>
<path d="M376.0,164 L376.0,276" stroke="#e6e6e6" stroke-opacity="50" stroke-width="1" />
<path d="M475.0,164 L475.0,276" stroke="#e6e6e6" stroke-opacity="50" stroke-width="1" />
<path d="M574.0,164 L574.0,276" stroke="#e6e6e6" stroke-opacity="50" stroke-width="1" />
<path d="M673.0,164 L673.0,276" stroke="#e6e6e6" stroke-opacity="50" stroke-width="1" />
<path d="M772.0,164 L772.0,276" stroke="#e6e6e6" stroke-opacity="50" stroke-width="1" />
<path d="M871.0,164 L871.0,276" stroke="#e6e6e6" stroke-opacity="50" stroke-width="1" />
<path d="M970.0,164 L970.0,276" stroke="#e6e6e6" stroke-opacity="50" stroke-width="1" />
<path d="M1069.0,164 L1069.0,276" stroke="#e6e6e6" stroke-opacity="50" stroke-width="1" />
<rect x="30" y="199" width="228.0" height="67" fill="#0B5394" />
<text x="107.0" y="227.0" font-size="12" stroke="#FFFFFF" text-anchor="start" dominant-baseline="hanging" font-family="Arial">Workstream 1</text>
<rect x="278" y="199" width="444" height="20" fill="#9FC5E8" />
<rect x="722" y="199" width="345" height="20" fill="#9FC5E8" />
<text x="871.0" y="203.5" font-size="12" stroke="#000000" text-anchor="start" dominant-baseline="hanging" font-family="Arial">Task 2-B</text>
<text x="476.0" y="203.5" font-size="12" stroke="#000000" text-anchor="start" dominant-baseline="hanging" font-family="Arial">Task 1-A</text>
<rect x="575" y="239" width="295" height="20" fill="#9FC5E8" />
<path d="M872.5,236 L885.5,249.0 L872.5,262 L859.5,249.0" fill="#3D85C6" />
<text x="853.5" y="221" font-size="10" text-anchor="start" dominant-baseline="middle" font-family="Arial" stroke="#0B5394">Milestone 1</text>
<text x="698.5" y="243.5" font-size="12" stroke="#000000" text-anchor="start" dominant-baseline="hanging" font-family="Arial">Task 3-C</text>
<text x="521.0" y="336" font-size="13" text-anchor="start" dominant-baseline="middle" font-family="Arial" stroke="#0B5394">Generated by Roadmapper</text>
</svg>