<?xml version="1.0" encoding="UTF-8"?>
<svg xmlns="http://www.w3.org/2000/svg" xmlns:xlink="http://www.w3.org/1999/xlink"
     width="800" height="575" viewBox="0 0 800 575">
<defs>
</defs>
<rect x="0" y="0" width="800" height="700" fill="#FFFFFF" />
<text x="302.5" y="30" font-size="26" text-anchor="start" dominant-baseline="middle" font-family="../fonts/SourceHanSerifTC-Regular.otf" stroke="#000000">戰略路線圖 2023</text>
<text x="292.0" y="68" font-size="18" text-anchor="start" dominant-baseline="middle" font-family="../fonts/SourceHanSerifTC-Regular.otf" stroke="#000000">瑪塔里奇太陽科技有限公司</text>
<rect x="198.0" y="132" width="574.5" height="20" fill="#4C5B5C" />
<text x="460.75" y="132.5" font-size="14" stroke="#FFFFFF" text-anchor="start" dominant-baseline="hanging" font-family="../fonts/SourceHanSerifTC-Regular.otf">2023 年</text>
<rect x="198.0" y="155" width="142.5" height="20" fill="#4C5B5C" />
<text x="248.25" y="157.5" font-size="12" stroke="#FFFFFF" text-anchor="start" dominant-baseline="hanging" font-family="../fonts/SourceHanSerifTC-Regular.otf">第1季度</text>
<rect x="342.0" y="155" width="142.5" height="20" fill="#4C5B5C" />
<text x="391.75" y="157.5" font-size="12" stroke="#FFFFFF" text-anchor="start" dominant-baseline="hanging" font-family="../fonts/SourceHanSerifTC-Regular.otf">第2季度</text>
<rect x="486.0" y="155" width="142.5" height="20" fill="#4C5B5C" />
<text x="535.75" y="157.5" font-size="12" stroke="#FFFFFF" text-anchor="start" dominant-baseline="hanging" font-family="../fonts/SourceHanSerifTC-Regular.otf">第3季度</text>
<rect x="630.0" y="155" width="142.5" height="20" fill="#4C5B5C" />
<text x="679.75" y="157.5" font-size="12" stroke="#FFFFFF" text-anchor="start" dominant-baseline="hanging" font-family="../fonts/SourceHanSerifTC-Regular.otf">第4季度</text>
<path d="M341.0,175 L341.0,466" stroke="#e6e6e6" stroke-opacity="50" stroke-width="1" />
<path d="M485.0,175 L485.0,466" stroke="#e6e6e6" stroke-opacity="50" stroke-width="1" />
<path d="M629.0,175 L629.0,466" stroke="#e6e6e6" stroke-opacity="50" stroke-width="1" />
<rect x="30" y="213" width="148.0" height="52" fill="#FCA311" />
<text x="76.0" y="229.0" font-size="14" stroke="#FFFFFF" text-anchor="start" dominant-baseline="hanging" font-family="../fonts/SourceHanSerifTC-Bold.otf">人員流程</text>
<rect x="198" y="213" width="189" height="20" fill="#8FBC94" />
<rect x="389" y="213" width="381" height="20" fill="#8FBC94" />
<text x="501.5" y="215.0" font-size="12" stroke="#000000" text-anchor="start" dominant-baseline="hanging" font-family="../fonts/SourceHanSerifTC-Regular.otf">促進多樣性、公平性和包容性</text>
<text x="256.5" y="215.0" font-size="12" stroke="#000000" text-anchor="start" dominant-baseline="hanging" font-family="../fonts/SourceHanSerifTC-Regular.otf">制定包容戰略</text>
<rect x="292" y="238" width="431" height="20" fill="#8FBC94" />
<text x="453.5" y="240.0" font-size="12" stroke="#000000" text-anchor="start" dominant-baseline="hanging" font-family="../fonts/SourceHanSerifTC-Regular.otf">實施可持續發展計劃</text>
<rect x="30" y="280" width="148.0" height="67" fill="#FCA311" />
<text x="76.0" y="303.5" font-size="14" stroke="#FFFFFF" text-anchor="start" dominant-baseline="hanging" font-family="../fonts/SourceHanSerifTC-Bold.otf">工作流程</text>
<rect x="247" y="280" width="475" height="20" fill="#8FBC94" />
<text x="436.5" y="282.0" font-size="12" stroke="#000000" text-anchor="start" dominant-baseline="hanging" font-family="../fonts/SourceHanSerifTC-Regular.otf">實施業務改進計劃</text>
<rect x="486" y="320" width="284" height="20" fill="#8FBC94" />
<path d="M536.5439560439561,317 L549.5439560439561,330.0 L536.5439560439561,343 L523.5439560439561,330.0" fill="#3D6642" />
<text x="513.2106227106227" y="302" font-size="12" text-anchor="start" dominant-baseline="middle" font-family="../fonts/SourceHanSerifTC-Regular.otf" stroke="#000000">30%自動化 </text>
<path d="M727.521978021978,317 L740.521978021978,330.0 L727.521978021978,343 L714.521978021978,330.0" fill="#3D6642" />
<text x="704.1886446886447" y="302" font-size="12" text-anchor="start" dominant-baseline="middle" font-family="../fonts/SourceHanSerifTC-Regular.otf" stroke="#000000">60%自動化 </text>
<text x="598.0" y="322.0" font-size="12" stroke="#000000" text-anchor="start" dominant-baseline="hanging" font-family="../fonts/SourceHanSerifTC-Regular.otf">自動化流程</text>
<rect x="30" y="362" width="148.0" height="94" fill="#FCA311" />
<text x="76.0" y="398.5" font-size="14" stroke="#FFFFFF" text-anchor="start" dominant-baseline="hanging" font-family="../fonts/SourceHanSerifTC-Bold.otf">工具流程</text>
<rect x="198" y="362" width="189" height="20" fill="#8FBC94" />
<text x="244.5" y="364.0" font-size="12" stroke="#000000" text-anchor="start" dominant-baseline="hanging" font-family="../fonts/SourceHanSerifTC-Regular.otf">實施工具選擇策略</text>
<rect x="247" y="387" width="331" height="20" fill="#8FBC94" />
<text x="388.5" y="389.0" font-size="12" stroke="#000000" text-anchor="start" dominant-baseline="hanging" font-family="../fonts/SourceHanSerifTC-Regular.otf">工具選擇</text>
<rect x="342" y="427" width="381" height="20" fill="#8FBC94" />
<path d="M727.521978021978,424 L740.521978021978,437.0 L727.521978021978,450 L714.521978021978,437.0" fill="#3D6642" />
<text x="701.521978021978" y="409" font-size="12" text-anchor="start" dominant-baseline="middle" font-family="../fonts/SourceHanSerifTC-Regular.otf" stroke="#000000">系統集中完成</text>
<text x="496.5" y="429.0" font-size="12" stroke="#000000" text-anchor="start" dominant-baseline="hanging" font-family="../fonts/SourceHanSerifTC-Regular.otf">集中工具管理</text>
<text x="341.5" y="528" font-size="12" text-anchor="start" dominant-baseline="middle" font-family="../fonts/SourceHanSerifTC-Regular.otf" stroke="#000000">由 Roadmapper 生成</text>
</svg>