<?xml version="1.0" encoding="UTF-8"?>
<svg xmlns="http://www.w3.org/2000/svg" xmlns:xlink="http://www.w3.org/1999/xlink"
     width="800" height="575" viewBox="0 0 800 575">
<defs>
</defs>
<rect x="0" y="0" width="800" height="700" fill="#FFFFFF" />
<text x="302.5" y="30" font-size="26" text-anchor="start" dominant-baseline="middle" font-family="../fonts/SourceHanSerifTC-Regular.otf" stroke="#000000">戰略路線圖 2023</text>
<text x="292.0" y="68" font-size="18" text-anchor="start" dominant-baseline="middle" font-family="../fonts/SourceHanSerifTC-Regular.otf" stroke="#000000">瑪塔里奇太陽科技有限公司</text>
<rect x="198.0" y="132" width="574.5" height="20" fill="#4C5B5C" />
<text x="451.25" y="133.5" font-size="14" stroke="#FFFFFF" text-anchor="start" dominant-baseline="hanging" font-family="../fonts/SourceHanSerifTC-Regular.otf">Year 2023</text>
<rect x="198.0" y="155" width="142.5" height="20" fill="#4C5B5C" />
<text x="261.75" y="156.5" font-size="12" stroke="#FFFFFF" text-anchor="start" dominant-baseline="hanging" font-family="../fonts/SourceHanSerifTC-Regular.otf">Q1</text>
<rect x="342.0" y="155" width="142.5" height="20" fill="#4C5B5C" />
<text x="405.25" y="156.5" font-size="12" stroke="#FFFFFF" text-anchor="start" dominant-baseline="hanging" font-family="../fonts/SourceHanSerifTC-Regular.otf">Q2</text>
<rect x="486.0" y="155" width="142.5" height="20" fill="#4C5B5C" />
<text x="549.25" y="156.5" font-size="12" stroke="#FFFFFF" text-anchor="start" dominant-baseline="hanging" font-family="../fonts/SourceHanSerifTC-Regular.otf">Q3</text>
<rect x="630.0" y="155" width="142.5" height="20" fill="#4C5B5C" />
<text x="693.25" y="156.5" font-size="12" stroke="#FFFFFF" text-anchor="start" dominant-baseline="hanging" font-family="../fonts/SourceHanSerifTC-Regular.otf">Q4</text>
<path d="M341.0,175 L341.0,466" stroke="#e6e6e6" stroke-opacity="50" stroke-width="1" />
<path d="M485.0,175 L485.0,466" stroke="#e6e6e6" stroke-opacity="50" stroke-width="1" />
<path d="M629.0,175 L629.0,466" stroke="#e6e6e6" stroke-opacity="50" stroke-width="1" />
<rect x="30" y="213" width="148.0" height="52" fill="#FCA311" />
<text x="76.0" y="229.0" font-size="14" stroke="#FFFFFF" text-anchor="start" dominant-baseline="hanging" font-family="../fonts/SourceHanSerifTC-Bold.otf">人員流程</text>
<rect x="198" y="213" width="189" height="20" fill="#8FBC94" />
<text x="256.5" y="215.0" font-size="12" stroke="#000000" text-anchor="start" dominant-baseline="hanging" font-family="../fonts/SourceHanSerifTC-Regular.otf">制定包容戰略</text>
<rect x="389" y="213" width="381" height="20" fill="#8FBC94" />
<text x="501.5" y="215.0" font-size="12" stroke="#000000" text-anchor="start" dominant-baseline="hanging" font-family="../fonts/SourceHanSerifTC-Regular.otf">促進多樣性、公平性和包容性</text>
<rect x="292" y="238" width="431" height="20" fill="#8FBC94" />
<text x="453.5" y="240.0" font-size="12" stroke="#000000" text-anchor="start" dominant-baseline="hanging" font-family="../fonts/SourceHanSerifTC-Regular.otf">實施可持續發展計劃</text>
<rect x="30" y="280" width="148.0" height="67" fill="#FCA311" />
<text x="76.0" y="303.5" font-size="14" stroke="#FFFFFF" text-anchor="start" dominant-baseline="hanging" font-family="../fonts/SourceHanSerifTC-Bold.otf">工作流程</text>
<rect x="247" y="280" width="475" height="20" fill="#8FBC94" />
<text x="436.5" y="282.0" font-size="12" stroke="#000000" text-anchor="start" dominant-baseline="hanging" font-family="../fonts/SourceHanSerifTC-Regular.otf">實施業務改進計劃</text>
<rect x="486" y="320" width="284" height="20" fill="#8FBC94" />
<text x="598.0" y="322.0" font-size="12" stroke="#000000" text-anchor="start" dominant-baseline="hanging" font-family="../fonts/SourceHanSerifTC-Regular.otf">自動化流程</text>
<path d="M536.5439560439561,317 L549.5439560439561,330.0 L536.5439560439561,343 L523.5439560439561,330.0" fill="#3D6642" />
<text x="513.2106227106227" y="302" font-size="12" text-anchor="start" dominant-baseline="middle" font-family="../fonts/SourceHanSerifTC-Regular.otf" stroke="#000000">30%自動化 </text>
<path d="M727.521978021978,317 L740.521978021978,330.0 L727.521978021978,343 L714.521978021978,330.0" fill="#3D6642" />
<text x="704.1886446886447" y="302" font-size="12" text-anchor="start" dominant-baseline="middle" font-family="../fonts/SourceHanSerifTC-Regular.otf" stroke="#000000">60%自動化 </text>
<rect x="30" y="362" width="148.0" height="94" fill="#FCA311" />
<text x="76.0" y="398.5" font-size="14" stroke="#FFFFFF" text-anchor="start" dominant-baseline="hanging" font-family="../fonts/SourceHanSerifTC-Bold.otf">工具流程</text>
<rect x="198" y="362" width="189" height="20" fill="#8FBC94" />
<text x="244.5" y="364.0" font-size="12" stroke="#000000" text-anchor="start" dominant-baseline="hanging" font-family="../fonts/SourceHanSerifTC-Regular.otf">實施工具選擇策略</text>
<rect x="247" y="387" width="331" height="20" fill="#8FBC94" />
<text x="388.5" y="389.0" font-size="12" stroke="#000000" text-anchor="start" dominant-baseline="hanging" font-family="../fonts/SourceHanSerifTC-Regular.otf">工具選擇</text>
<rect x="342" y="427" width="381" height="20" fill="#8FBC94" />
<text x="496.5" y="429.0" font-size="12" stroke="#000000" text-anchor="start" dominant-baseline="hanging" font-family="../fonts/SourceHanSerifTC-Regular.otf">集中工具管理</text>
<path d="M727.521978021978,424 L740.521978021978,437.0 L727.521978021978,450 L714.521978021978,437.0" fill="#3D6642" />
<text x="701.521978021978" y="409" font-size="12" text-anchor="start" dominant-baseline="middle" font-family="../fonts/SourceHanSerifTC-Regular.otf" stroke="#000000">系統集中完成</text>
<text x="646.9230769230769" y="188" font-size="12" text-anchor="start" dominant-baseline="middle" font-family="../fonts/SourceHanSerifTC-Regular.otf" stroke="#000000">▼</text>
<path d="M651.9230769230769,202.0 L651.9230769230769,212.0" stroke="#000000" stroke-opacity="0.9" stroke-width="2" />
<path d="M651.9230769230769,216.66666666666666 L651.9230769230769,226.66666666666666" stroke="#000000" stroke-opacity="0.9" stroke-width="2" />
<path d="M651.9230769230769,231.33333333333334 L651.9230769230769,241.33333333333334" stroke="#000000" stroke-opacity="0.9" stroke-width="2" />
<path d="M651.9230769230769,246.0 L651.9230769230769,256.0" stroke="#000000" stroke-opacity="0.9" stroke-width="2" />
<path d="M651.9230769230769,260.6666666666667 L651.9230769230769,270.6666666666667" stroke="#000000" stroke-opacity="0.9" stroke-width="2" />
<path d="M651.9230769230769,275.3333333333333 L651.9230769230769,285.3333333333333" stroke="#000000" stroke-opacity="0.9" stroke-width="2" />
<path d="M651.9230769230769,290.0 L651.9230769230769,300.0" stroke="#000000" stroke-opacity="0.9" stroke-width="2" />
<path d="M651.9230769230769,304.66666666666663 L651.9230769230769,314.66666666666663" stroke="#000000" stroke-opacity="0.9" stroke-width="2" />
<path d="M651.9230769230769,319.3333333333333 L651.9230769230769,329.3333333333333" stroke="#000000" stroke-opacity="0.9" stroke-width="2" />
<path d="M651.9230769230769,334.0 L651.9230769230769,344.0" stroke="#000000" stroke-opacity="0.9" stroke-width="2" />
<path d="M651.9230769230769,348.66666666666663 L651.9230769230769,358.66666666666663" stroke="#000000" stroke-opacity="0.9" stroke-width="2" />
<path d="M651.9230769230769,363.3333333333333 L651.9230769230769,373.3333333333333" stroke="#000000" stroke-opacity="0.9" stroke-width="2" />
<path d="M651.9230769230769,378.0 L651.9230769230769,388.0" stroke="#000000" stroke-opacity="0.9" stroke-width="2" />
<path d="M651.9230769230769,392.66666666666663 L651.9230769230769,402.66666666666663" stroke="#000000" stroke-opacity="0.9" stroke-width="2" />
<path d="M651.9230769230769,407.3333333333333 L651.9230769230769,417.3333333333333" stroke="#000000" stroke-opacity="0.9" stroke-width="2" />
<path d="M651.9230769230769,422.0 L651.9230769230769,432.0" stroke="#000000" stroke-opacity="0.9" stroke-width="2" />
<path d="M651.9230769230769,436.66666666666663 L651.9230769230769,446.66666666666663" stroke="#000000" stroke-opacity="0.9" stroke-width="2" />
<path d="M651.9230769230769,451.3333333333333 L651.9230769230769,461.3333333333333" stroke="#000000" stroke-opacity="0.9" stroke-width="2" />
<path d="M651.9230769230769,466.0 L651.9230769230769,476.0" stroke="#000000" stroke-opacity="0.9" stroke-width="2" />
<text x="339.5" y="528" font-size="12" text-anchor="start" dominant-baseline="middle" font-family="../fonts/SourceHanSerifTC-Regular.otf" stroke="#000000">由 Roadmapper 生成</text>
</svg>