<?xml version="1.0" encoding="UTF-8"?>
<svg xmlns="http://www.w3.org/2000/svg" xmlns:xlink="http://www.w3.org/1999/xlink"
     width="800" height="590" viewBox="0 0 800 590">
<defs>
</defs>
<rect x="0" y="0" width="800" height="700" fill="#FFFFFF" />
<text x="302.5" y="30" font-size="26" text-anchor="start" dominant-baseline="middle" font-family="../fonts/SourceHanSerifTC-Regular.otf" stroke="#000000">戰略路線圖 2023</text>
<text x="292.0" y="68" font-size="18" text-anchor="start" dominant-baseline="middle" font-family="../fonts/SourceHanSerifTC-Regular.otf" stroke="#000000">瑪塔里奇太陽科技有限公司</text>
<rect x="198.0" y="132" width="574.5" height="20" fill="#4C5B5C" />
<text x="451.25" y="133.5" font-size="14" stroke="#FFFFFF" text-anchor="start" dominant-baseline="hanging" font-family="../fonts/SourceHanSerifTC-Regular.otf">Year 2023</text>
<rect x="198.0" y="155" width="142.5" height="20" fill="#4C5B5C" />
<text x="261.75" y="156.5" font-size="12" stroke="#FFFFFF" text-anchor="start" dominant-baseline="hanging" font-family="../fonts/SourceHanSerifTC-Regular.otf">Q1</text>
<rect x="342.0" y="155" width="142.5" height="20" fill="#4C5B5C" />
<text x="405.25" y="156.5" font-size="12" stroke="#FFFFFF" text-anchor="start" dominant-baseline="hanging" font-family="../fonts/SourceHanSerifTC-Regular.otf">Q2</text>
<rect x="486.0" y="155" width="142.5" height="20" fill="#4C5B5C" />
<text x="549.25" y="156.5" font-size="12" stroke="#FFFFFF" text-anchor="start" dominant-baseline="hanging" font-family="../fonts/SourceHanSerifTC-Regular.otf">Q3</text>
<rect x="630.0" y="155" width="142.5" height="20" fill="#4C5B5C" />
<text x="693.25" y="156.5" font-size="12" stroke="#FFFFFF" text-anchor="start" dominant-baseline="hanging" font-family="../fonts/SourceHanSerifTC-Regular.otf">Q4</text>
<path d="M341.0,175 L341.0,481" width="1" fill="(230, 230, 230, 12750)" />
<path d="M485.0,175 L485.0,481" width="1" fill="(230, 230, 230, 12750)" />
<path d="M629.0,175 L629.0,481" width="1" fill="(230, 230, 230, 12750)" />
<rect x="30" y="213" width="148.0" height="52" fill="#FCA311" />
<text x="76.0" y="229.0" font-size="14" stroke="#FFFFFF" text-anchor="start" dominant-baseline="hanging" font-family="../fonts/SourceHanSerifTC-Bold.otf">人員流程</text>
<rect x="198" y="213" width="187" height="20" fill="#8FBC94" />
<text x="255.5" y="215.0" font-size="12" stroke="#000000" text-anchor="start" dominant-baseline="hanging" font-family="../fonts/SourceHanSerifTC-Regular.otf">制定包容戰略</text>
<rect x="389" y="213" width="377" height="20" fill="#8FBC94" />
<text x="499.5" y="215.0" font-size="12" stroke="#000000" text-anchor="start" dominant-baseline="hanging" font-family="../fonts/SourceHanSerifTC-Regular.otf">促進多樣性、公平性和包容性</text>
<rect x="292" y="238" width="425" height="20" fill="#8FBC94" />
<text x="450.5" y="240.0" font-size="12" stroke="#000000" text-anchor="start" dominant-baseline="hanging" font-family="../fonts/SourceHanSerifTC-Regular.otf">實施可持續發展計劃</text>
<rect x="30" y="280" width="148.0" height="82" fill="#FCA311" />
<text x="76.0" y="311.0" font-size="14" stroke="#FFFFFF" text-anchor="start" dominant-baseline="hanging" font-family="../fonts/SourceHanSerifTC-Bold.otf">工作流程</text>
<rect x="247" y="280" width="469" height="20" fill="#8FBC94" />
<text x="433.5" y="282.0" font-size="12" stroke="#000000" text-anchor="start" dominant-baseline="hanging" font-family="../fonts/SourceHanSerifTC-Regular.otf">實施業務改進計劃</text>
<rect x="486" y="320" width="282" height="20" fill="#8FBC94" />
<text x="597.0" y="322.0" font-size="12" stroke="#000000" text-anchor="start" dominant-baseline="hanging" font-family="../fonts/SourceHanSerifTC-Regular.otf">自動化流程</text>
<path d="M536.5439560439561,317 L549.5439560439561,330.0 L536.5439560439561,343 L523.5439560439561,330.0" fill="#3D6642" />
<text x="513.2106227106227" y="302" font-size="12" text-anchor="start" dominant-baseline="middle" font-family="../fonts/SourceHanSerifTC-Regular.otf" stroke="#000000">30%自動化 </text>
<path d="M727.521978021978,317 L740.521978021978,330.0 L727.521978021978,343 L714.521978021978,330.0" fill="#3D6642" />
<text x="704.1886446886447" y="302" font-size="12" text-anchor="start" dominant-baseline="middle" font-family="../fonts/SourceHanSerifTC-Regular.otf" stroke="#000000">60%自動化 </text>
<rect x="30" y="377" width="148.0" height="94" fill="#FCA311" />
<text x="76.0" y="413.5" font-size="14" stroke="#FFFFFF" text-anchor="start" dominant-baseline="hanging" font-family="../fonts/SourceHanSerifTC-Bold.otf">工具流程</text>
<rect x="198" y="377" width="187" height="20" fill="#8FBC94" />
<text x="243.5" y="379.0" font-size="12" stroke="#000000" text-anchor="start" dominant-baseline="hanging" font-family="../fonts/SourceHanSerifTC-Regular.otf">實施工具選擇策略</text>
<rect x="247" y="402" width="327" height="20" fill="#8FBC94" />
<text x="386.5" y="404.0" font-size="12" stroke="#000000" text-anchor="start" dominant-baseline="hanging" font-family="../fonts/SourceHanSerifTC-Regular.otf">工具選擇</text>
<rect x="342" y="442" width="377" height="20" fill="#8FBC94" />
<text x="494.5" y="444.0" font-size="12" stroke="#000000" text-anchor="start" dominant-baseline="hanging" font-family="../fonts/SourceHanSerifTC-Regular.otf">集中工具管理</text>
<path d="M727.521978021978,439 L740.521978021978,452.0 L727.521978021978,465 L714.521978021978,452.0" fill="#3D6642" />
<text x="701.521978021978" y="424" font-size="12" text-anchor="start" dominant-baseline="middle" font-family="../fonts/SourceHanSerifTC-Regular.otf" stroke="#000000">系統集中完成</text>
<text x="493.5274725274725" y="188" font-size="12" text-anchor="start" dominant-baseline="middle" font-family="../fonts/SourceHanSerifTC-Regular.otf" stroke="#000000">▼</text>
<path d="M498.5274725274725,202.0 L498.5274725274725,212.0" stroke="#000000" />
<path d="M498.5274725274725,216.68421052631578 L498.5274725274725,226.68421052631578" stroke="#000000" />
<path d="M498.5274725274725,231.3684210526316 L498.5274725274725,241.3684210526316" stroke="#000000" />
<path d="M498.5274725274725,246.05263157894737 L498.5274725274725,256.0526315789474" stroke="#000000" />
<path d="M498.5274725274725,260.7368421052632 L498.5274725274725,270.7368421052632" stroke="#000000" />
<path d="M498.5274725274725,275.42105263157896 L498.5274725274725,285.42105263157896" stroke="#000000" />
<path d="M498.5274725274725,290.10526315789474 L498.5274725274725,300.10526315789474" stroke="#000000" />
<path d="M498.5274725274725,304.7894736842105 L498.5274725274725,314.7894736842105" stroke="#000000" />
<path d="M498.5274725274725,319.4736842105263 L498.5274725274725,329.4736842105263" stroke="#000000" />
<path d="M498.5274725274725,334.1578947368421 L498.5274725274725,344.1578947368421" stroke="#000000" />
<path d="M498.5274725274725,348.8421052631579 L498.5274725274725,358.8421052631579" stroke="#000000" />
<path d="M498.5274725274725,363.52631578947364 L498.5274725274725,373.52631578947364" stroke="#000000" />
<path d="M498.5274725274725,378.2105263157895 L498.5274725274725,388.2105263157895" stroke="#000000" />
<path d="M498.5274725274725,392.89473684210526 L498.5274725274725,402.89473684210526" stroke="#000000" />
<path d="M498.5274725274725,407.57894736842104 L498.5274725274725,417.57894736842104" stroke="#000000" />
<path d="M498.5274725274725,422.2631578947369 L498.5274725274725,432.2631578947369" stroke="#000000" />
<path d="M498.5274725274725,436.9473684210526 L498.5274725274725,446.9473684210526" stroke="#000000" />
<path d="M498.5274725274725,451.63157894736844 L498.5274725274725,461.63157894736844" stroke="#000000" />
<path d="M498.5274725274725,466.3157894736842 L498.5274725274725,476.3157894736842" stroke="#000000" />
<path d="M498.5274725274725,481.0 L498.5274725274725,491.0" stroke="#000000" />
<text x="339.5" y="543" font-size="12" text-anchor="start" dominant-baseline="middle" font-family="../fonts/SourceHanSerifTC-Regular.otf" stroke="#000000">由 Roadmapper 生成</text>
</svg>